<?xml version="1.0" encoding="UTF-8" standalone="no"?>
<!-- Created with Inkscape (http://www.inkscape.org/) -->

<svg
   width="210mm"
   height="297mm"
   viewBox="0 0 210 297"
   version="1.1"
   id="svg5"
   xml:space="preserve"
   inkscape:version="1.2.2 (732a01da63, 2022-12-09)"
   sodipodi:docname="zip.svg"
   xmlns:inkscape="http://www.inkscape.org/namespaces/inkscape"
   xmlns:sodipodi="http://sodipodi.sourceforge.net/DTD/sodipodi-0.dtd"
   xmlns="http://www.w3.org/2000/svg"
   xmlns:svg="http://www.w3.org/2000/svg"><sodipodi:namedview
     id="namedview7"
     pagecolor="#ffffff"
     bordercolor="#000000"
     borderopacity="0.25"
     inkscape:showpageshadow="2"
     inkscape:pageopacity="0.0"
     inkscape:pagecheckerboard="0"
     inkscape:deskcolor="#d1d1d1"
     inkscape:document-units="mm"
     showgrid="false"
     inkscape:zoom="1.0683582"
     inkscape:cx="93.601566"
     inkscape:cy="584.54178"
     inkscape:window-width="3072"
     inkscape:window-height="1657"
     inkscape:window-x="-8"
     inkscape:window-y="-8"
     inkscape:window-maximized="1"
     inkscape:current-layer="layer1" /><defs
     id="defs2" /><g
     inkscape:label="Layer 1"
     inkscape:groupmode="layer"
     id="layer1"><path
       style="fill:#000000;stroke-width:1"
       d="m 99.27553,214.31353 c -1.141641,-0.98201 -1.286567,-1.43989 -1.44429,-4.56326 l -0.175315,-3.4717 h 3.015985 c 0.93017,-0.15487 2.75431,0.2926 3.01598,-0.7363 0,-0.61406 0.34094,-0.68517 2.05347,-0.42836 -0.44099,0.24038 0,0 5.70406,-0.20431 1.02626,0.4676 0.91263,-0.23007 0.91263,2.88824 0,6.48475 -1.13753,7.60721 -7.7094,7.60721 -3.67044,0 -4.23822,-0.11538 -5.37312,-1.09152 z"
       id="path302"
       sodipodi:nodetypes="sscccccsss"
       inkscape:export-filename="zadrga.png"
       inkscape:export-xdpi="300"
       inkscape:export-ydpi="300" /><path
       style="fill:#000000;stroke-width:1"
       d="m 111.10317,109.52391 c -0.5647,-0.22699 -1.02673,-0.72734 -1.02673,-1.11189 0,-0.51151 -0.48997,-0.69919 -1.82529,-0.69919 -1.63101,0 -1.82531,-0.11849 -1.82531,-1.11388 0,-1.53345 0.67177,-1.81108 2.35291,-0.97241 1.27619,0.63663 1.48272,0.63872 1.9355,0.0195 0.36224,-0.4954 0.92657,-0.60927 1.97775,-0.39903 2.06965,0.41393 2.46845,1.05334 1.91258,3.06652 -0.49331,1.78662 -1.33981,2.07924 -3.50141,1.21037 z"
       id="path386" /><path
       style="fill:#000000;stroke-width:1"
       d="m 95.782807,112.84647 c -0.624424,-1.06092 -0.751171,-3.20685 -0.214948,-3.63927 1.153456,-0.93017 3.449002,-1.14961 3.884556,-0.37134 0.3676,0.65685 0.541311,0.65405 1.914375,-0.0309 1.62752,-0.8119 2.29892,-0.43369 2.31412,1.30359 0.005,0.62861 -0.38149,0.79856 -1.81831,0.79856 -1.29879,0 -1.82529,0.19282 -1.82529,0.66844 0,1.20356 -3.652051,2.29455 -4.254503,1.27094 z"
       id="path384" /><path
       style="fill:#000000;stroke-width:1"
       d="m 110.36672,116.05555 c -0.80393,-0.1228 -1.396,-0.54045 -1.53851,-1.08543 -0.1478,-0.56506 -0.58344,-0.8571 -1.20293,-0.80636 -2.09683,0.17178 -2.56841,-0.0492 -2.56841,-1.2032 0,-1.28845 1.19419,-1.54268 2.73282,-0.58179 0.74689,0.46644 0.99506,0.42236 1.49853,-0.26617 0.48371,-0.66151 0.94579,-0.76097 2.32939,-0.5014 1.9865,0.37265 2.2081,0.74901 1.73347,2.94373 -0.35646,1.64822 -0.7434,1.84277 -2.98436,1.50062 z"
       id="path382" /><path
       style="fill:#000000;stroke-width:1"
       d="m 96.850512,118.45613 c -0.628098,-1.65201 -0.583808,-2.97747 0.106586,-3.19016 2.151275,-0.66274 3.069652,-0.65362 3.760672,0.0374 0.62953,0.62953 0.91586,0.65585 1.82752,0.16798 1.3371,-0.71559 2.51156,-0.31879 2.51156,0.84855 0,1.05822 -1.04346,1.5312 -2.54604,1.15408 -0.81254,-0.20393 -1.10455,-0.0902 -1.10455,0.42981 0,0.88633 -0.28165,1.05751 -2.391693,1.45334 -1.553566,0.29146 -1.740282,0.21373 -2.164073,-0.90094 z"
       id="path380" /><path
       style="fill:#000000;stroke-width:1"
       d="m 109.62012,123.36162 c -0.62746,-0.109 -1.40228,-0.53757 -1.72183,-0.95224 -0.38879,-0.5045 -1.10588,-0.70871 -2.16754,-0.61725 -1.41009,0.12142 -1.58652,0.0138 -1.58652,-0.96303 0,-1.52556 0.28357,-1.68228 2.12423,-1.17405 1.32624,0.36619 1.70582,0.30753 2.17663,-0.33633 0.47175,-0.64516 0.87866,-0.70724 2.3557,-0.35943 1.97412,0.46488 2.39272,1.38672 1.58927,3.49992 -0.46509,1.2233 -0.62468,1.27529 -2.76994,0.90241 z"
       id="path378" /><path
       style="fill:#000000;stroke-width:1"
       d="m 104.03807,125.43311 c 0.39387,-0.39387 0.80416,-0.40192 1.57432,-0.0309 0.97821,0.47127 0.94578,0.50369 -0.53271,0.5327 -1.20002,0.0235 -1.44767,-0.0957 -1.04161,-0.50181 z"
       id="path376" /><path
       style="fill:#000000;stroke-width:1"
       d="m 97.780413,125.31117 c -0.298837,-0.36008 -0.477981,-1.33311 -0.39811,-2.16229 0.130904,-1.35868 0.317619,-1.53541 1.890192,-1.78877 1.145555,-0.18457 1.945465,-0.0807 2.328665,0.30257 0.38055,0.38053 1.24238,0.49536 2.47603,0.3299 1.80382,-0.24194 1.89233,-0.19765 1.89233,0.94708 0,1.11906 -0.13987,1.20088 -2.05347,1.20088 -1.44413,0 -2.05345,0.18732 -2.05345,0.63127 0,1.16812 -3.208527,1.59205 -4.082187,0.53936 z"
       id="path374" /><path
       style="fill:#000000;stroke-width:1"
       d="m 109.6481,125.96585 c -2.34772,-0.21585 -2.43922,-0.2705 -1.69356,-1.01179 0.56511,-0.5618 1.20305,-0.70619 2.25363,-0.51008 3.28112,0.61254 2.8317,1.83369 -0.56007,1.52187 z"
       id="path372" /><path
       style="fill:#000000;stroke-width:1"
       d="m 103.99211,145.73989 c -0.16729,-0.16729 -0.30422,-3.25394 -0.30422,-6.85918 0,-5.64774 0.10331,-6.59461 0.74652,-6.84143 0.41058,-0.15764 1.07795,-0.0778 1.48306,0.17719 0.60057,0.37807 0.76088,1.50759 0.86843,6.11893 0.1585,6.80011 -0.0104,7.70871 -1.43351,7.70871 -0.58084,0 -1.19297,-0.13694 -1.36028,-0.30422 z"
       id="path370" /><path
       style="fill:#000000;stroke-width:1"
       d="m 95.154296,148.21165 c -2.618115,-2.87444 -2.638863,-5.32726 -0.08089,-9.56082 2.105261,-3.48429 3.088835,-5.9285 3.118603,-7.7498 0.01035,-0.67385 0.222502,-1.75773 0.469978,-2.40861 l 0.449937,-1.18343 6.280846,0.12693 6.28084,0.12694 0.27398,2.54782 c 0.28044,2.6079 1.91074,6.70939 3.62241,9.11321 2.20117,3.09127 2.03506,6.46978 -0.43442,8.8357 l -1.344,1.28762 -0.4537,-1.76569 c -0.24954,-0.97112 -0.69311,-2.9648 -0.98573,-4.43037 -0.42165,-2.11178 -0.9023,-3.03497 -2.3165,-4.44917 -1.59922,-1.59922 -1.78447,-2.02133 -1.78447,-4.06609 0,-2.69259 -1.08862,-4.10692 -3.16115,-4.10692 -1.90319,0 -3.22739,1.82981 -3.22739,4.45967 0,1.7487 -0.26098,2.33811 -1.75107,3.95464 -1.539233,1.66988 -1.849694,2.40748 -2.566389,6.09734 -0.448437,2.3087 -0.959411,4.19765 -1.135502,4.19765 -0.176091,0 -0.740996,-0.46202 -1.255351,-1.02674 z"
       id="path368" /><path
       style="fill:#000000;stroke-width:1"
       d="m 107.81758,167.5339 c -0.37861,-0.70744 -0.80823,-0.8242 -2.29769,-0.62441 -1.64235,0.22028 -1.832,0.14505 -1.832,-0.72701 0,-0.95075 0.19998,-1.08681 1.59714,-1.08681 0.37648,0 1.00183,0.0257 1.38972,0.0571 0.81714,0.0661 2.94537,2.07069 2.94537,2.77426 0,0.81131 -1.31097,0.52544 -1.80254,-0.39306 z"
       id="path366" /><path
       style="fill:#000000;stroke-width:1"
       d="m 100.32669,170.90881 c -0.344071,-0.89665 0.15178,-3.35417 0.75144,-3.72482 0.25663,-0.15867 0.71286,0.0485 1.01387,0.46005 0.37459,0.5123 1.10863,0.71426 2.32647,0.64013 1.62249,-0.0988 1.77921,-0.009 1.77921,1.03249 0,1.05199 -0.14712,1.13172 -1.88954,1.02407 -1.3415,-0.083 -1.96601,0.0826 -2.1532,0.57039 -0.34085,0.88823 -1.48707,0.88676 -1.82825,-0.002 z"
       id="path364" /><path
       style="fill:#000000;stroke-width:1"
       d="m 103.68789,172.81793 c 0,-1.47623 0.30476,-1.65684 1.97374,-1.16977 1.22236,0.35674 1.54651,0.27892 2.07477,-0.49802 0.34433,-0.50645 1.02555,-0.92083 1.51379,-0.92083 0.70765,0 0.82529,0.20831 0.57986,1.02673 -0.51159,1.70603 -1.36906,2.2566 -3.81165,2.4474 -2.19088,0.17109 -2.33051,0.11814 -2.33051,-0.88551 z"
       id="path362" /><path
       style="fill:#000000;stroke-width:1"
       d="m 108.57123,175.26736 c 1.90103,-1.15913 2.87419,-3.10719 2.87419,-5.75355 0,-1.85937 -0.2212,-2.35102 -1.74203,-3.87183 -1.95095,-1.95095 -3.46354,-2.49542 -5.74403,-2.06761 -2.94555,0.55259 -5.291024,3.41808 -5.291024,6.46407 0,1.63158 1.625594,4.41781 3.117554,5.34344 1.67752,1.04074 4.98209,0.98497 6.78534,-0.11452 z"
       id="path360" /><path
       style="fill:#000000;stroke-width:1"
       d="m 100.72179,180.54733 c -3.711796,-1.62151 -6.595945,-5.91756 -6.620659,-9.8617 -0.0207,-3.29366 5.463113,-28.49358 6.577939,-30.2281 l 0.95537,-1.48644 0.22816,4.03103 c 0.18678,3.30004 0.38878,4.14821 1.11394,4.67733 1.44849,1.05685 3.70719,0.81436 4.7488,-0.50986 0.79295,-1.00804 0.87549,-1.60713 0.6444,-4.67731 -0.24758,-3.289 -0.21345,-3.47852 0.51758,-2.87423 0.43045,0.35582 0.95982,0.97806 1.17641,1.38274 0.70235,1.31237 6.08166,27.11193 6.09426,29.22852 0.0254,4.25311 -2.56094,8.39312 -6.30971,10.10045 -2.17263,0.98949 -7.0911,1.10673 -9.12649,0.21757 z"
       id="path358" /><path
       style="fill:#000000;stroke-width:1"
       d="m 104.2583,183.14816 c 0.43921,-0.11486 1.15792,-0.11486 1.59713,0 0.43921,0.11486 0.0799,0.20869 -0.79856,0.20869 -0.87842,0 -1.23778,-0.0938 -0.79857,-0.20869 z"
       id="path356" /><path
       style="fill:#000000;stroke-width:1"
       d="m 98.326088,184.52948 c -0.318343,-0.12849 -0.570407,-1.01013 -0.570407,-1.99512 v -1.76496 l 1.93938,0.88031 c 1.066649,0.48418 2.350059,0.88798 2.852019,0.89733 0.532,0.0103 0.70843,0.15677 0.42305,0.35226 -0.26929,0.18439 -0.6222,0.69461 -0.78425,1.13383 -0.28758,0.77943 -2.464483,1.05938 -3.859792,0.49635 z"
       id="path354" /><path
       style="fill:#000000;stroke-width:1"
       d="m 107.96895,189.19056 c -0.19852,-0.51737 -0.79344,-0.68149 -2.16336,-0.59686 -1.74242,0.10762 -1.88954,0.0279 -1.88954,-1.02405 0,-1.0571 0.14229,-1.13183 1.93938,-1.01845 1.51152,0.0954 1.93938,-0.036 1.93938,-0.59542 0,-0.57158 0.44144,-0.68942 2.16754,-0.57866 l 2.16754,0.13901 v 2.05345 2.05347 l -1.94355,0.14056 c -1.43391,0.10365 -2.01536,-0.0466 -2.21739,-0.57307 z"
       id="path352" /><path
       style="fill:#000000;stroke-width:1"
       d="m 97.937377,190.5792 c -0.135388,-0.35258 -0.180195,-1.32798 -0.09969,-2.16754 0.137803,-1.43843 0.256444,-1.53451 2.05628,-1.6654 1.535723,-0.11159 2.006923,0.0421 2.404393,0.78482 0.4196,0.78405 0.66114,0.84772 1.59738,0.42115 1.50474,-0.68561 2.62975,-0.18083 2.44811,1.09842 -0.12797,0.90126 -0.38031,1.0143 -2.03562,0.91202 -1.34152,-0.083 -1.96601,0.0826 -2.15323,0.57041 -0.34987,0.91174 -3.870618,0.95023 -4.217557,0.046 z"
       id="path350" /><path
       style="fill:#000000;stroke-width:1"
       d="m 107.79481,195.55238 c 0,-0.61542 -0.3398,-0.6865 -2.05345,-0.42952 -2.00983,0.30139 -2.05347,0.28131 -2.05347,-0.94479 0,-1.19883 0.0788,-1.24212 1.832,-1.00697 1.48946,0.19977 1.91908,0.083 2.29769,-0.62441 0.56446,-1.0547 3.24483,-1.19695 4.05942,-0.21543 0.29884,0.36006 0.47798,1.33546 0.39811,2.16754 -0.13987,1.45724 -0.22488,1.51797 -2.31276,1.65194 -1.74904,0.11228 -2.16754,-0.003 -2.16754,-0.59836 z"
       id="path348" /><path
       style="fill:#000000;stroke-width:1"
       d="m 97.937377,197.88 c -0.135388,-0.35258 -0.180195,-1.32796 -0.09969,-2.16754 0.136078,-1.4199 0.272415,-1.53678 1.953333,-1.67383 1.24314,-0.10141 1.96957,0.0748 2.32771,0.56463 0.3466,0.47402 1.11528,0.67579 2.29981,0.60368 1.6225,-0.0988 1.77921,-0.009 1.77921,1.03248 0,1.052 -0.14712,1.13173 -1.88952,1.02407 -1.34152,-0.0829 -1.96601,0.0826 -2.15323,0.57041 -0.34987,0.91174 -3.870618,0.95024 -4.217557,0.0461 z"
       id="path310" /><path
       style="fill:#000000;stroke-width:1"
       d="m 107.79481,202.85318 c 0,-0.6154 -0.3398,-0.68648 -2.05345,-0.4295 -2.00983,0.30139 -2.05347,0.28132 -2.05347,-0.94478 0,-1.19884 0.0788,-1.24214 1.832,-1.00698 1.48946,0.19977 1.91908,0.083 2.29769,-0.62441 0.3373,-0.63025 0.96203,-0.87012 2.26623,-0.87012 1.51964,0 1.84338,0.17074 2.07521,1.0944 0.15109,0.60192 0.20633,1.57732 0.1228,2.16754 -0.13177,0.93064 -0.43973,1.09161 -2.31945,1.21223 -1.74904,0.11228 -2.16754,-0.003 -2.16754,-0.59838 z"
       id="path308" /><path
       style="fill:#000000;stroke-width:1"
       d="m 98.059899,204.60538 c -0.634807,-0.63481 -0.313203,-3.70162 0.417582,-3.98205 1.588229,-0.60945 3.465799,-0.29518 3.705189,0.6202 0.20317,0.77695 0.50318,0.86038 2.23889,0.62246 1.95218,-0.26757 2.00428,-0.24184 2.00428,0.99014 0,1.23659 -0.0459,1.25858 -2.05345,0.9834 -1.63601,-0.22422 -2.05347,-0.14401 -2.05347,0.3943 0,0.49283 -0.53528,0.67577 -1.97739,0.67577 -1.087593,0 -2.114318,-0.13694 -2.281631,-0.30422 z"
       id="path306" /><text
       xml:space="preserve"
       style="font-style:normal;font-variant:normal;font-weight:bold;font-stretch:normal;font-size:6.69277px;line-height:1.25;font-family:Consolas;-inkscape-font-specification:'Consolas, Bold';font-variant-ligatures:normal;font-variant-position:super;font-variant-caps:normal;font-variant-numeric:normal;font-variant-east-asian:normal;text-align:center;text-anchor:middle;fill:none;fill-rule:evenodd;stroke-width:1;stroke-linejoin:round"
       x="105.33971"
       y="172.00609"
       id="text598"><tspan
         sodipodi:role="line"
         id="tspan596"
         style="font-style:normal;font-variant:normal;font-weight:bold;font-stretch:normal;font-size:6.69277px;font-family:Consolas;-inkscape-font-specification:'Consolas, Bold';font-variant-ligatures:normal;font-variant-position:normal;font-variant-caps:normal;font-variant-numeric:normal;font-variant-east-asian:normal;fill:#ffffff;stroke-width:1"
         x="105.33971"
         y="172.00609">zip()</tspan></text><text
       xml:space="preserve"
       style="font-style:normal;font-variant:normal;font-weight:bold;font-stretch:normal;font-size:6.69277px;line-height:1.25;font-family:Consolas;-inkscape-font-specification:'Consolas, Bold';font-variant-ligatures:normal;font-variant-position:normal;font-variant-caps:normal;font-variant-numeric:normal;font-variant-east-asian:normal;text-align:center;text-anchor:middle;fill:#ff2a2a;fill-rule:evenodd;stroke-width:1;stroke-linejoin:round"
       x="92.601082"
       y="204.90959"
       id="text734"><tspan
         sodipodi:role="line"
         id="tspan732"
         style="font-style:normal;font-variant:normal;font-weight:bold;font-stretch:normal;font-size:6.69277px;font-family:Consolas;-inkscape-font-specification:'Consolas, Bold';font-variant-ligatures:normal;font-variant-caps:normal;font-variant-numeric:normal;font-variant-east-asian:normal;fill:#ff2a2a;stroke-width:1"
         x="92.601082"
         y="204.90959">1</tspan></text><text
       xml:space="preserve"
       style="font-style:normal;font-variant:normal;font-weight:bold;font-stretch:normal;font-size:6.69277px;line-height:1.25;font-family:Consolas;-inkscape-font-specification:'Consolas, Bold';font-variant-ligatures:normal;font-variant-position:normal;font-variant-caps:normal;font-variant-numeric:normal;font-variant-east-asian:normal;text-align:center;text-anchor:middle;fill:#ff2a2a;fill-rule:evenodd;stroke-width:1;stroke-linejoin:round"
       x="92.601082"
       y="198.12134"
       id="text788"><tspan
         sodipodi:role="line"
         id="tspan786"
         style="font-style:normal;font-variant:normal;font-weight:bold;font-stretch:normal;font-size:6.69277px;font-family:Consolas;-inkscape-font-specification:'Consolas, Bold';font-variant-ligatures:normal;font-variant-caps:normal;font-variant-numeric:normal;font-variant-east-asian:normal;fill:#ff2a2a;stroke-width:1"
         x="92.601082"
         y="198.12134">3</tspan></text><text
       xml:space="preserve"
       style="font-style:normal;font-variant:normal;font-weight:bold;font-stretch:normal;font-size:6.69277px;line-height:1.25;font-family:Consolas;-inkscape-font-specification:'Consolas, Bold';font-variant-ligatures:normal;font-variant-position:normal;font-variant-caps:normal;font-variant-numeric:normal;font-variant-east-asian:normal;text-align:center;text-anchor:middle;fill:#ff2a2a;fill-rule:evenodd;stroke-width:1;stroke-linejoin:round"
       x="92.601082"
       y="191.05672"
       id="text844"><tspan
         sodipodi:role="line"
         id="tspan842"
         style="font-style:normal;font-variant:normal;font-weight:bold;font-stretch:normal;font-size:6.69277px;font-family:Consolas;-inkscape-font-specification:'Consolas, Bold';font-variant-ligatures:normal;font-variant-caps:normal;font-variant-numeric:normal;font-variant-east-asian:normal;fill:#ff2a2a;stroke-width:1"
         x="92.601082"
         y="191.05672">5</tspan></text><text
       xml:space="preserve"
       style="font-style:normal;font-variant:normal;font-weight:bold;font-stretch:normal;font-size:6.69277px;line-height:1.25;font-family:Consolas;-inkscape-font-specification:'Consolas, Bold';font-variant-ligatures:normal;font-variant-position:normal;font-variant-caps:normal;font-variant-numeric:normal;font-variant-east-asian:normal;text-align:center;text-anchor:middle;fill:#ff2a2a;fill-rule:evenodd;stroke-width:1;stroke-linejoin:round"
       x="92.607628"
       y="183.66644"
       id="text848"><tspan
         sodipodi:role="line"
         id="tspan846"
         style="font-style:normal;font-variant:normal;font-weight:bold;font-stretch:normal;font-size:6.69277px;font-family:Consolas;-inkscape-font-specification:'Consolas, Bold';font-variant-ligatures:normal;font-variant-caps:normal;font-variant-numeric:normal;font-variant-east-asian:normal;fill:#ff2a2a;stroke-width:1"
         x="92.607628"
         y="183.66644">7</tspan></text><text
       xml:space="preserve"
       style="font-style:normal;font-variant:normal;font-weight:bold;font-stretch:normal;font-size:6.69277px;line-height:1.25;font-family:Consolas;-inkscape-font-specification:'Consolas, Bold';font-variant-ligatures:normal;font-variant-position:normal;font-variant-caps:normal;font-variant-numeric:normal;font-variant-east-asian:normal;text-align:center;text-anchor:middle;fill:#2a7fff;fill-rule:evenodd;stroke-width:1;stroke-linejoin:round"
       x="116.09935"
       y="203.52278"
       id="text902"><tspan
         sodipodi:role="line"
         id="tspan900"
         style="font-style:normal;font-variant:normal;font-weight:bold;font-stretch:normal;font-size:6.69277px;font-family:Consolas;-inkscape-font-specification:'Consolas, Bold';font-variant-ligatures:normal;font-variant-caps:normal;font-variant-numeric:normal;font-variant-east-asian:normal;fill:#2a7fff;stroke-width:1"
         x="116.09935"
         y="203.52278">2</tspan></text><text
       xml:space="preserve"
       style="font-style:normal;font-variant:normal;font-weight:bold;font-stretch:normal;font-size:6.69277px;line-height:1.25;font-family:Consolas;-inkscape-font-specification:'Consolas, Bold';font-variant-ligatures:normal;font-variant-position:normal;font-variant-caps:normal;font-variant-numeric:normal;font-variant-east-asian:normal;text-align:center;text-anchor:middle;fill:#2a7fff;fill-rule:evenodd;stroke-width:1;stroke-linejoin:round"
       x="116.09935"
       y="196.43251"
       id="text906"><tspan
         sodipodi:role="line"
         id="tspan904"
         style="font-style:normal;font-variant:normal;font-weight:bold;font-stretch:normal;font-size:6.69277px;font-family:Consolas;-inkscape-font-specification:'Consolas, Bold';font-variant-ligatures:normal;font-variant-caps:normal;font-variant-numeric:normal;font-variant-east-asian:normal;fill:#2a7fff;stroke-width:1"
         x="116.09935"
         y="196.43251">4</tspan></text><text
       xml:space="preserve"
       style="font-style:normal;font-variant:normal;font-weight:bold;font-stretch:normal;font-size:6.69277px;line-height:1.25;font-family:Consolas;-inkscape-font-specification:'Consolas, Bold';font-variant-ligatures:normal;font-variant-position:normal;font-variant-caps:normal;font-variant-numeric:normal;font-variant-east-asian:normal;text-align:center;text-anchor:middle;fill:#2a7fff;fill-rule:evenodd;stroke-width:1;stroke-linejoin:round"
       x="116.09935"
       y="189.66991"
       id="text910"><tspan
         sodipodi:role="line"
         id="tspan908"
         style="font-style:normal;font-variant:normal;font-weight:bold;font-stretch:normal;font-size:6.69277px;font-family:Consolas;-inkscape-font-specification:'Consolas, Bold';font-variant-ligatures:normal;font-variant-caps:normal;font-variant-numeric:normal;font-variant-east-asian:normal;fill:#2a7fff;stroke-width:1"
         x="116.09935"
         y="189.66991">6</tspan></text><text
       xml:space="preserve"
       style="font-style:normal;font-variant:normal;font-weight:bold;font-stretch:normal;font-size:6.69277px;line-height:1.25;font-family:Consolas;-inkscape-font-specification:'Consolas, Bold';font-variant-ligatures:normal;font-variant-position:normal;font-variant-caps:normal;font-variant-numeric:normal;font-variant-east-asian:normal;text-align:center;text-anchor:middle;fill:#ff2a2a;fill-rule:evenodd;stroke-width:1;stroke-linejoin:round"
       x="91.697014"
       y="126.54602"
       id="text1024"><tspan
         sodipodi:role="line"
         id="tspan1022"
         style="font-style:normal;font-variant:normal;font-weight:bold;font-stretch:normal;font-size:6.69277px;font-family:Consolas;-inkscape-font-specification:'Consolas, Bold';font-variant-ligatures:normal;font-variant-caps:normal;font-variant-numeric:normal;font-variant-east-asian:normal;fill:#ff2a2a;stroke-width:1"
         x="91.697014"
         y="126.54602">15</tspan></text><text
       xml:space="preserve"
       style="font-style:normal;font-variant:normal;font-weight:bold;font-stretch:normal;font-size:6.69277px;line-height:1.25;font-family:Consolas;-inkscape-font-specification:'Consolas, Bold';font-variant-ligatures:normal;font-variant-position:normal;font-variant-caps:normal;font-variant-numeric:normal;font-variant-east-asian:normal;text-align:center;text-anchor:middle;fill:#ff2a2a;fill-rule:evenodd;stroke-width:1;stroke-linejoin:round"
       x="91.697014"
       y="120.09206"
       id="text1028"><tspan
         sodipodi:role="line"
         id="tspan1026"
         style="font-style:normal;font-variant:normal;font-weight:bold;font-stretch:normal;font-size:6.69277px;font-family:Consolas;-inkscape-font-specification:'Consolas, Bold';font-variant-ligatures:normal;font-variant-caps:normal;font-variant-numeric:normal;font-variant-east-asian:normal;fill:#ff2a2a;stroke-width:1"
         x="91.697014"
         y="120.09206">17</tspan></text><text
       xml:space="preserve"
       style="font-style:normal;font-variant:normal;font-weight:bold;font-stretch:normal;font-size:6.69277px;line-height:1.25;font-family:Consolas;-inkscape-font-specification:'Consolas, Bold';font-variant-ligatures:normal;font-variant-position:normal;font-variant-caps:normal;font-variant-numeric:normal;font-variant-east-asian:normal;text-align:center;text-anchor:middle;fill:#ff2a2a;fill-rule:evenodd;stroke-width:1;stroke-linejoin:round"
       x="90.05864"
       y="113.63809"
       id="text1032"><tspan
         sodipodi:role="line"
         id="tspan1030"
         style="font-style:normal;font-variant:normal;font-weight:bold;font-stretch:normal;font-size:6.69277px;font-family:Consolas;-inkscape-font-specification:'Consolas, Bold';font-variant-ligatures:normal;font-variant-caps:normal;font-variant-numeric:normal;font-variant-east-asian:normal;fill:#ff2a2a;stroke-width:1"
         x="90.05864"
         y="113.63809">19</tspan></text><text
       xml:space="preserve"
       style="font-style:normal;font-variant:normal;font-weight:bold;font-stretch:normal;font-size:6.69277px;line-height:1.25;font-family:Consolas;-inkscape-font-specification:'Consolas, Bold';font-variant-ligatures:normal;font-variant-position:normal;font-variant-caps:normal;font-variant-numeric:normal;font-variant-east-asian:normal;text-align:center;text-anchor:middle;fill:#2a7fff;fill-rule:evenodd;stroke-width:1;stroke-linejoin:round"
       x="117.00078"
       y="123.5218"
       id="text1036"><tspan
         sodipodi:role="line"
         id="tspan1034"
         style="font-style:normal;font-variant:normal;font-weight:bold;font-stretch:normal;font-size:6.69277px;font-family:Consolas;-inkscape-font-specification:'Consolas, Bold';font-variant-ligatures:normal;font-variant-caps:normal;font-variant-numeric:normal;font-variant-east-asian:normal;fill:#2a7fff;stroke-width:1"
         x="117.00078"
         y="123.5218">16</tspan></text><text
       xml:space="preserve"
       style="font-style:normal;font-variant:normal;font-weight:bold;font-stretch:normal;font-size:6.69277px;line-height:1.25;font-family:Consolas;-inkscape-font-specification:'Consolas, Bold';font-variant-ligatures:normal;font-variant-position:normal;font-variant-caps:normal;font-variant-numeric:normal;font-variant-east-asian:normal;text-align:center;text-anchor:middle;fill:#2a7fff;fill-rule:evenodd;stroke-width:1;stroke-linejoin:round"
       x="118.82609"
       y="116.43156"
       id="text1040"><tspan
         sodipodi:role="line"
         id="tspan1038"
         style="font-style:normal;font-variant:normal;font-weight:bold;font-stretch:normal;font-size:6.69277px;font-family:Consolas;-inkscape-font-specification:'Consolas, Bold';font-variant-ligatures:normal;font-variant-caps:normal;font-variant-numeric:normal;font-variant-east-asian:normal;fill:#2a7fff;stroke-width:1"
         x="118.82609"
         y="116.43156">18</tspan></text><text
       xml:space="preserve"
       style="font-style:normal;font-variant:normal;font-weight:bold;font-stretch:normal;font-size:6.69277px;line-height:1.25;font-family:Consolas;-inkscape-font-specification:'Consolas, Bold';font-variant-ligatures:normal;font-variant-position:normal;font-variant-caps:normal;font-variant-numeric:normal;font-variant-east-asian:normal;text-align:center;text-anchor:middle;fill:#2a7fff;fill-rule:evenodd;stroke-width:1;stroke-linejoin:round"
       x="119.73875"
       y="109.66893"
       id="text1044"><tspan
         sodipodi:role="line"
         id="tspan1042"
         style="font-style:normal;font-variant:normal;font-weight:bold;font-stretch:normal;font-size:6.69277px;font-family:Consolas;-inkscape-font-specification:'Consolas, Bold';font-variant-ligatures:normal;font-variant-caps:normal;font-variant-numeric:normal;font-variant-east-asian:normal;fill:#2a7fff;stroke-width:1"
         x="119.73875"
         y="109.66893">20</tspan></text></g></svg>
