<svg version="1.1" xmlns="http://www.w3.org/2000/svg" xmlns:xlink="http://www.w3.org/1999/xlink" width="95.17898" height="114.83261" viewBox="0,0,95.17898,114.83261"><g transform="translate(-192.32102,-115.50895)"><g data-paper-data="{&quot;isPaintingLayer&quot;:true}" stroke-miterlimit="10" stroke-dasharray="" stroke-dashoffset="0" style="mix-blend-mode: normal"><g fill-rule="evenodd"><path d="M224.7,201.1c0.8,0.4 2.5,1.3 0.1,4.7c-2.4,3.4 -9.3,4.1 -10.1,4.1c-3.1,0.1 -6.9,0.1 -11.1,-1.3c-12.2,-4 -12.3,-17.1 -8.4,-19.2c3.8,-2.1 5.5,6 11,10.9c2.4,2.2 5.3,3 7.7,3.5c3.4,0.6 9.9,-3.2 10.8,-2.7z" fill="#ffab19" stroke="#001026" stroke-width="1.2" stroke-linecap="round" stroke-linejoin="round"/><path d="M199.9,193c1.6,2.7 4.7,6.5 4.7,6.5c0,0 -3.7,-0.9 -5.8,0.8c-1.7,1.3 -1.3,3.5 -1.1,4.2c-1.3,-1.3 -2.9,-3.1 -3.9,-6.6c-1,-3.5 0,-7.7 2,-8.3c2,-0.4 2.5,1.1 4.1,3.4z" fill="#ffffff" stroke="none" stroke-width="1" stroke-linecap="butt" stroke-linejoin="miter"/></g><path d="M229.7,211.5c-1.8,1.2 -8,5.6 -15.9,8.1l-0.4,0.1c-0.4,0.1 -0.6,0.6 -0.4,1c1.7,2.4 4.8,7.2 -0.7,8.9c-5.3,1.7 -15.2,-12.4 -11,-16.1c1.9,-1.4 3.6,-0.7 4.5,-0.3c0.5,0.2 1,0.2 1.5,0.1c1.2,-0.4 3.4,-1.2 5.1,-2.1c4.3,-2.2 5.3,-3.1 7.3,-4.6c2,-1.5 6.6,-5.2 10.3,-2c3.2,2.7 1.4,5.7 -0.3,6.9z" fill="#ffab19" fill-rule="evenodd" stroke="#001026" stroke-width="1.2" stroke-linecap="round" stroke-linejoin="round"/><path d="M245.6,190.7c0.5,0.4 6.6,7.6 8.6,5.8c2.4,-2.1 5.7,-6.2 9.3,-2.9c3.6,3.3 -3.2,8.9 -6.1,10.4c-6.9,3.1 -12.5,-2.8 -13.7,-4.4c-1.2,-1.6 -3.3,-4.3 -3.3,-6.9c0.1,-2.8 3.5,-3.5 5.2,-2z" fill="#ffab19" fill-rule="evenodd" stroke="#001026" stroke-width="1.2" stroke-linecap="round" stroke-linejoin="round"/><g fill-rule="evenodd"><path d="M245.7,214c2.1,1.9 6.7,5.8 6.7,5.8c0,0 14.3,-2.5 14.3,4.7c0,4.3 -7.2,5.3 -16.9,4.4c-0.6,-0.1 -1.2,-0.3 -1.7,-0.7c-2.2,-1.9 -8.5,-7.5 -12.5,-11.4c-5.9,-5.8 -10.8,-9.6 -10.8,-9.6c-8.5,-8.3 -1.6,-11.8 1.1,-16.6c2.5,-4.1 3.6,-3.3 9.6,-2.1c3.4,0.5 5.4,0.8 7.6,0.7c3.3,-0.1 2.7,4.7 1.8,7.2c0,0 -1.4,3.7 -2.7,5.6c-1.6,2.3 -2.8,3.8 -4,4.7z" fill="#ffab19" stroke="#001026" stroke-width="1.2" stroke-linecap="round" stroke-linejoin="round"/><path d="M237.3,206.6c0,0 -1.5,-1.2 -3.1,-2.7c-2,-1.8 -4,-3.3 -2,-6.4c1.8,-2.4 3.5,-5.6 8,-2.7c4.3,2.7 2.4,5.2 2.4,5.2c-2.2,4.5 -5.3,6.6 -5.3,6.6z" fill="#ffffff" stroke="none" stroke-width="1" stroke-linecap="butt" stroke-linejoin="miter"/></g><path d="M222.2,198.4c2.2,2.8 5.6,6.3 1.3,9.2c-5.9,3.3 -10.8,-6.7 -11.8,-10.2c-0.9,-3.1 1.7,-5.1 3.9,-6.8c4.3,-3.1 7.9,-5.9 11.9,-4.4c5,1.8 1.4,5.8 -1.1,7.6c-1.5,1.1 -3,2.3 -4.1,3c-0.3,0.5 -0.4,1.1 -0.1,1.6z" fill="#ffab19" fill-rule="evenodd" stroke="#001026" stroke-width="1.2" stroke-linecap="round" stroke-linejoin="round"/><g fill-rule="evenodd"><path d="M253.7,131c0.3,-0.2 0.8,-0.1 0.9,0.3l2.6,10.7c0,0 6.4,4.7 8.3,8c3.2,5.5 3.3,10 3.3,10c0,0 7.1,2.1 8.3,7.8c1.2,5.7 -3.2,16.5 -22,20.2c-18.8,3.7 -33.9,-1.4 -41,-12.8c-7.1,-11.4 4.1,-25 3.5,-24.2l-2.1,-17.9c-0.1,-0.4 0.4,-0.7 0.8,-0.5l12.1,7.9c0,0 4.5,-1.7 9.2,-1.9c2.8,-0.2 5.2,0 7.5,0.4z" fill="#ffab19" stroke="#001026" stroke-width="1.2" stroke-linecap="butt" stroke-linejoin="miter"/><path d="M268.5,160.4c0,0 6.9,1.8 8.1,7.5c1.2,5.7 -3.6,16 -22.2,19.6c-24.2,5 -35.7,-9.4 -29,-20c6.7,-10.7 18.2,-1.6 26.6,-2.2c7.2,-0.5 8,-6.8 16.5,-4.9z" fill="#ffffff" stroke="none" stroke-width="1" stroke-linecap="butt" stroke-linejoin="miter"/><path d="M237,171.1c0,-0.4 0.4,-0.7 0.8,-0.6c1.9,0.7 7.3,2.3 13.3,2.7c5.4,0.3 8.6,0 10.1,-0.3c0.5,-0.1 0.9,0.4 0.7,0.9c-0.9,2.7 -4.7,10.2 -15.2,9.6c-9.1,-1 -10,-7.4 -9.7,-12.3z" fill="#ffffff" stroke="#001026" stroke-width="1.2" stroke-linecap="round" stroke-linejoin="round"/><path d="M286.9,161.5c-4.7,3.8 -11.9,3.9 -11.9,3.9" fill="none" stroke="#001026" stroke-width="1.2" stroke-linecap="round" stroke-linejoin="round"/><path d="M285.6,172.7c-6.3,0.5 -10.2,-1.4 -10.2,-1.4" fill="none" stroke="#001026" stroke-width="1.2" stroke-linecap="round" stroke-linejoin="round"/><path d="M251.6,162.7c2.1,0 4.3,0.2 4.4,0.9c0.1,1.4 -1.4,4.2 -3,4.3c-1.8,0.2 -6,-2.3 -6,-3.9c-0.1,-1.2 2.6,-1.3 4.6,-1.3z" fill="#001026" stroke="#001026" stroke-width="1.2" stroke-linecap="round" stroke-linejoin="round"/><path d="M206.6,161.2c0,0 8.6,2.8 12.1,5.9" fill="none" stroke="#001026" stroke-width="1.2" stroke-linecap="round" stroke-linejoin="round"/><path d="M219,170.6c-4.3,1.7 -11.7,0.6 -11.7,0.6" fill="none" stroke="#001026" stroke-width="1.2" stroke-linecap="round" stroke-linejoin="round"/><g><path d="M263.4,151c2.9,4.5 3,9.6 0.2,11.4c-2.8,1.8 -7.4,-0.3 -10.4,-4.8c-2.9,-4.5 -3,-9.6 -0.2,-11.4c2.8,-1.9 7.5,0.3 10.4,4.8z" fill="#ffffff" stroke="#001026" stroke-width="1.2" stroke-linecap="round" stroke-linejoin="round"/><path d="M263,156.7c0,1.1 -0.8,2 -1.8,2c-1,0 -1.8,-0.9 -1.8,-2c0,-1.1 0.8,-2 1.8,-2c1,0 1.8,0.9 1.8,2" fill="#001026" stroke="none" stroke-width="1" stroke-linecap="butt" stroke-linejoin="miter"/></g><g><path d="M238.6,153.8c3,4.4 2.8,9.8 0.1,11.7c-3.3,1.9 -7.7,0.5 -10.7,-3.9c-3.1,-4.4 -3.3,-10.1 -0.2,-12.3c3.1,-2.3 7.8,0.1 10.8,4.5z" fill="#ffffff" stroke="#001026" stroke-width="1.2" stroke-linecap="round" stroke-linejoin="round"/><path d="M238,159.6c0,1.1 -0.8,2 -1.8,2c-1,0 -1.8,-0.9 -1.8,-2c0,-1.1 0.8,-2 1.8,-2c1,0.1 1.8,0.9 1.8,2" fill="#001026" stroke="none" stroke-width="1" stroke-linecap="butt" stroke-linejoin="miter"/></g></g><g fill-rule="nonzero" stroke="none" stroke-width="0.5" stroke-linecap="butt" stroke-linejoin="miter"><path d="M266.62957,145.61957l-0.25868,-0.01942c-6.36465,1.21598 -12.72735,3.04634 -19.11712,4.32356c-4.43535,0.72914 -8.76467,1.77791 -13.20908,2.50483c-3.20838,0.52476 -6.40428,-0.13861 -9.51489,-0.69264c-0.06746,0.12098 -0.157,0.21134 -0.25312,0.27885c4.30263,1.66834 8.97859,3.22309 13.47356,3.20202c5.3644,0 10.92958,0.42105 16.274,0.00486c3.69017,-0.28736 7.1494,-1.60216 10.87485,-1.58697c2.34663,-0.68491 4.58529,-1.54286 6.90303,-2.24217c1.473,-0.44443 2.89896,-0.4675 4.12577,-1.56773c2.45484,-2.20157 -2.75212,-4.24159 -4.29561,-4.2052c0,0 -0.61702,0 -0.88171,-0.48467c-1.03578,-0.05309 -2.19744,0.02849 -3.19198,-0.10189c-0.22831,0.58657 -0.92902,0.58656 -0.92902,0.58656zM274.11472,144.12107c3.12169,1.12563 6.1647,3.99758 3.22739,7.11791c-1.34434,1.4281 -3.24605,1.55697 -4.97008,2.07061c-2.41424,0.71926 -4.74179,1.61805 -7.19553,2.30576c-3.75131,0.01424 -7.23146,1.31344 -10.95518,1.59658c-5.4154,0.41176 -11.03688,0.00486 -16.47107,0.00486c-5.92365,-0.02334 -12.06015,-2.47428 -17.4374,-4.62404c-2.7236,-1.08886 -5.41574,-0.68956 -6.73897,-3.69092c-0.13123,-9.64422 -0.82982,-18.91626 6.46645,-26.18554c2.12155,-1.59783 4.21672,-3.40448 6.54441,-4.67089c5.89198,-3.20561 13.2227,-2.41215 19.67771,-2.39068c6.14667,1.20463 13.63548,6.57297 16.6958,12.11113c0.89064,1.61176 2.17296,2.47957 2.53766,4.39357c2.4185,3.24629 0.95513,7.23828 1.75691,10.79746c0.17091,0.75865 1.55523,-0.02093 2.3329,-0.01947c1.44236,0.0027 2.44039,0.11996 3.71346,0.71826l-0.07511,-0.03607c0,0 0.63122,0 0.89066,0.5015z" fill="#09a2ff"/><path d="M267.60645,145.01852c0.99453,0.13038 2.15685,0.05115 3.19263,0.10424c0.2647,0.48468 0.88207,0.48621 0.88207,0.48621c1.5435,-0.03639 6.75158,2.01345 4.29674,4.21502c-1.22681,1.10023 -2.65283,1.12681 -4.12583,1.57125c-2.31775,0.69931 -4.55767,1.566 -6.9043,2.25091c-3.72545,-0.01519 -7.20416,1.32872 -10.89432,1.61608c-5.34442,0.41619 -10.98531,-0.02712 -16.3497,-0.02712c-4.49498,0.02106 -9.17431,-1.5486 -13.47693,-3.21694c0.09612,-0.06751 0.28546,-0.16422 0.35292,-0.2852c3.11061,0.55403 6.30615,1.21364 9.51453,0.68888c4.44441,-0.72692 8.67439,-1.77364 13.10974,-2.50278c6.38977,-1.27722 12.85028,-3.11686 19.21493,-4.33284l0.25875,0.01968c0,0 0.70047,-0.00083 0.92878,-0.5874z" data-paper-data="{&quot;noHover&quot;:false,&quot;origItem&quot;:[&quot;Path&quot;,{&quot;applyMatrix&quot;:true,&quot;segments&quot;:[[521.43453,283.50767],[[520.91718,283.46883],[0,0],[-12.7293,2.43197]],[[482.68294,292.11596],[12.77953,-2.55444],[-8.87071,1.45829]],[[456.26478,297.12562],[8.88883,-1.45385],[-6.41677,1.04952]],[[437.23499,295.74034],[6.22123,1.10806],[-0.13492,0.24196]],[[436.72875,296.29804],[0.19224,-0.13501],[8.60526,3.33668]],[[463.67588,302.70209],[-8.98995,0.04213],[10.7288,0]],[[496.22387,302.71182],[-10.68884,0.83237],[7.38033,-0.57472]],[[517.97358,299.53787],[-7.4509,-0.03037],[4.69325,-1.36982]],[[531.77965,295.05353],[-4.63549,1.39862],[2.946,-0.88887]],[[540.03118,291.91806],[-2.45361,2.20047],[4.90969,-4.40315]],[[531.43996,283.50767],[3.08699,-0.07278],[0,0]],[[529.67653,282.53833],[0.52939,0.96935],[-2.07156,-0.10618]],[[523.29258,282.33455],[1.98907,0.26077],[-0.45662,1.17313]]],&quot;closed&quot;:true}]}" fill="#055281"/><path d="M241.16119,137.78439c-0.23406,0.1037 -0.45479,0.10371 -0.45479,0.10371c-2.25743,-0.14114 -3.02447,4.87909 -1.1836,5.59117c3.03417,1.17366 5.74719,-3.60918 3.27679,-5.45087c-0.30831,-0.05324 -0.61661,-0.10648 -0.92493,-0.15972l-0.25867,0.01942c0,0 -0.22074,0 -0.4548,-0.10371zM241.16119,135.99181c0.23406,-0.1037 0.4548,-0.1037 0.4548,-0.1037l0.6509,0.01942c0.44968,0.09835 0.89935,0.19671 1.34903,0.29507c4.30727,3.23884 0.60844,11.71163 -4.90947,9.10249c-3.96714,-1.87586 -2.18702,-9.26913 1.99994,-9.41698c0,0 0.22073,0 0.45479,0.1037z" fill="#055281"/><path d="M250.02964,137.93467l0.71347,0.01942c0.63354,-0.12663 1.29214,-0.05104 1.93445,-0.12059c0.38609,-0.04181 -0.56056,-0.54731 -0.76982,-0.87446c-0.05243,-0.08197 -0.38865,-1.10718 -0.75063,-1.14597c-0.55552,-0.05953 -1.17767,0.23467 -1.72089,0.58182c0.00164,0.02453 0.00164,0.03842 0.00164,0.03842c0,0.58758 0.01729,1.13073 0.05197,1.64736c0.26254,-0.14599 0.5398,-0.14599 0.5398,-0.14599zM247.18308,136.80591c-0.6,-0.8 0.2,-1.4 0.2,-1.4c1.10665,-0.81827 2.75408,-1.88647 4.24785,-1.53591c1.50876,0.35407 3.74211,3.79543 2.57269,5.25625c-0.19816,0.24753 -2.4773,0.67073 -3.06826,0.78899l-1.1057,0.01942c0,0 -0.15154,0 -0.33665,-0.05899c0.18244,1.13388 0.46313,2.24099 0.84338,3.55959l-0.02702,-0.20499c0,0 0.70711,0.70711 0,1.41421c-0.70711,0.70711 -1.41422,0 -1.41422,0l-0.48181,-0.65978c-0.70039,-2.47709 -1.10999,-4.4084 -1.16825,-6.91894c-0.08944,-0.06268 -0.17769,-0.14744 -0.262,-0.25986z" fill="#055281"/><path d="M263.00637,145.36232c-0.97015,0.24254 -1.21268,-0.72761 -1.21268,-0.72761l-0.23783,-0.95601c-0.62546,-3.1273 -1.78828,-7.0795 -3.75692,-9.71162c-2.29628,-5.74069 -7.35008,-13.1337 -14.13638,-13.1337c0,0 -0.93113,0 -0.9964,-0.89849c-0.35964,0.05737 -0.71308,0.09811 -1.00811,0.17932c-1.85289,0.51004 -4.18222,0.77913 -6.50029,0.70369c0.37237,0.46169 0.07598,1.05447 0.07598,1.05447c-3.30992,6.4422 -6.9522,14.35885 -6.94622,21.90851c-0.24221,1.69546 -0.45884,3.45014 -0.45227,5.15922v0.45479c0,0 0,1 -1,1c-1,0 -1,-1 -1,-1v-0.45479c0.00587,-1.7638 0.20746,-3.55207 0.4573,-5.301c0.00614,-7.90315 3.87652,-15.85499 7.15234,-22.66116c0,0 0.06337,-0.12672 0.19009,-0.26093c-1.25974,-0.12766 -2.48359,-0.36652 -3.59033,-0.73383l-0.1147,0.34409l-1.3425,-0.4475c-0.40863,-0.12567 -0.70565,-0.50614 -0.70565,-0.95598c0,-0.3992 0.23392,-0.74377 0.57217,-0.90412l0.83234,-0.41617c1.91521,-1.36539 8.2528,-2.81022 10.51287,-1.69953c0.06775,0.03329 0.13296,0.07025 0.19601,0.11032c0.00262,-0.00144 0.00524,-0.00287 0.00786,-0.00431l0.0136,-0.02719l0.01905,0.00952c0.0392,-0.02098 0.07879,-0.0413 0.11879,-0.06096l0.13757,0.01104l-0.00915,-0.04575l1.11674,-0.22334c0.06967,-0.01537 0.14208,-0.02347 0.21636,-0.02347c0.36404,0 0.68264,0.19453 0.85754,0.4853c0.62546,0.02779 1.2056,0.15699 1.61672,0.4558l0.05838,-0.01209c0,0 0.98058,-0.19612 1.1767,0.78446c0.16023,0.80114 -0.46499,1.07865 -0.69917,1.15339c-0.02871,0.12815 -0.06684,0.24408 -0.1132,0.34913c7.14631,0.54631 12.53678,7.88954 15.02953,14.12141c2.07467,2.75843 3.31479,7.00041 3.97456,10.29924l0.21695,0.86317c0,0 0.24254,0.97015 -0.7276,1.21268z" fill="#055281"/></g><path d="M266.0586,190.87977l0.28569,1.17364c0,2.91775 0.73424,5.81812 1.05592,8.71332c0.12883,1.15956 -0.22439,2.4565 -0.01318,3.59596c0.24964,1.34677 1.40133,1.89665 -0.10322,3.34723c-1.02589,0.98909 -4.52715,0.54418 -5.91545,1.23833c-1.13689,0.02371 -2.93877,0.3156 -3.94279,-0.40349c-1.47835,-1.05882 -1.30374,-2.35954 -1.49265,-3.87078c-0.48956,-3.91651 -1.188,-7.6931 -1.30667,-11.62423c-2.00403,-1.79823 0.3682,-4.47174 2.70364,-4.76322c1.04981,-0.13102 2.22269,-0.00749 3.28206,-0.00749v0h1.05329c1.72886,0.01102 2.50342,0.35552 4.01053,1.26424c0.01979,0.23737 0.05876,0.52226 0.09087,0.82808c0.22048,0.22258 0.29194,0.50841 0.29194,0.50841zM260.61196,190.27904c-0.7022,0 -1.4044,0.00265 -2.10659,0c-0.46177,-0.00174 -2.10025,-0.05781 -2.45278,0.23376c-0.04315,0.03569 -0.0734,0.22924 -0.07364,0.45484c0.50461,0.16813 0.60495,0.67318 0.6249,0.86739c2.11802,0.29837 6.84662,0.25716 7.37063,-1.24028c-0.81417,-0.16961 -1.46645,-0.32248 -2.30923,-0.3157z" fill="#9e9fa8" fill-rule="nonzero" stroke="none" stroke-width="0.5" stroke-linecap="butt" stroke-linejoin="miter"/><path d="M261.70993,190.25659c0.84278,-0.00678 1.49995,0.16194 2.31412,0.33155c-0.524,1.49744 -5.35111,1.55552 -7.46912,1.25715c-0.01995,-0.19421 -0.12131,-0.71152 -0.62593,-0.87965c0.00024,-0.22559 0.03105,-0.42489 0.0742,-0.46058c0.35253,-0.29156 1.9971,-0.25274 2.45886,-0.251c0.70219,0.00265 1.47767,-0.01505 2.17986,-0.01505z" data-paper-data="{&quot;noHover&quot;:false,&quot;origItem&quot;:[&quot;Path&quot;,{&quot;applyMatrix&quot;:true,&quot;segments&quot;:[[[260.61196,190.27904],[0,0],[-0.7022,0]],[[258.50537,190.27904],[0.70219,0.00265],[-0.46177,-0.00174]],[[256.0526,190.5128],[0.35253,-0.29156],[-0.04315,0.03569]],[[255.97896,190.96763],[0.00024,-0.22559],[0.50461,0.16813]],[[256.60386,191.83502],[-0.01995,-0.19421],[2.11802,0.29837]],[[263.97449,190.59474],[-0.524,1.49744],[-0.81417,-0.16961]],[[261.66526,190.27904],[0.84278,-0.00678],[0,0]]],&quot;closed&quot;:true}]}" fill="#0717a8" fill-rule="nonzero" stroke="none" stroke-width="0.5" stroke-linecap="butt" stroke-linejoin="miter"/><path d="M259.76968,192.01868c-1.42302,0.47434 -1.89737,-0.94868 -1.89737,-0.94868l-0.3403,-1.26431c0,-1.127 0.40868,-3.18341 0.08456,-4.24331c-0.01142,-0.03735 -0.02694,-0.0744 -0.04609,-0.11109c-0.56027,-0.26148 -1.04118,-0.65026 -1.48493,-1.09669c-0.07763,-0.04155 -0.14434,-0.07811 -0.19519,-0.10908c-2.08349,-1.26906 -2.55718,-2.48894 -4.96907,-3.28642c0,0 -0.98876,-0.32959 -1.04316,-1.2635c-0.00598,-0.05013 -0.00915,-0.10324 -0.00915,-0.15953c0,-0.21291 0.04533,-0.38048 0.11669,-0.51238c0.48683,-1.37647 1.8843,-0.91064 1.8843,-0.91064c2.19907,0.73823 3.02913,1.43849 4.53617,2.9956c1.41277,1.45971 3.13937,1.14223 4.04131,3.46071c0.19495,0.50112 0.24896,1.20753 0.24301,1.96435c0.05055,0.66675 -0.00676,1.42497 -0.10844,2.1385c-0.02781,0.4215 -0.05001,0.80991 -0.05001,1.13348l0.18635,0.31563c0,0 0.47434,1.42302 -0.94868,1.89737z" fill="#06d000" fill-rule="nonzero" stroke="none" stroke-width="0.5" stroke-linecap="butt" stroke-linejoin="miter"/></g></g></svg>