<svg version="1.1" xmlns="http://www.w3.org/2000/svg" xmlns:xlink="http://www.w3.org/1999/xlink" width="95.17898" height="100.51739" viewBox="0,0,95.17898,100.51739"><g transform="translate(-192.32102,-130.50077)"><g data-paper-data="{&quot;isPaintingLayer&quot;:true}" stroke-miterlimit="10" stroke-dasharray="" stroke-dashoffset="0" style="mix-blend-mode: normal"><g fill-rule="evenodd"><path d="M224.7,201.1c0.8,0.4 2.5,1.3 0.1,4.7c-2.4,3.4 -9.3,4.1 -10.1,4.1c-3.1,0.1 -6.9,0.1 -11.1,-1.3c-12.2,-4 -12.3,-17.1 -8.4,-19.2c3.8,-2.1 5.5,6 11,10.9c2.4,2.2 5.3,3 7.7,3.5c3.4,0.6 9.9,-3.2 10.8,-2.7z" fill="#ffab19" stroke="#001026" stroke-width="1.2" stroke-linecap="round" stroke-linejoin="round"/><path d="M199.9,193c1.6,2.7 4.7,6.5 4.7,6.5c0,0 -3.7,-0.9 -5.8,0.8c-1.7,1.3 -1.3,3.5 -1.1,4.2c-1.3,-1.3 -2.9,-3.1 -3.9,-6.6c-1,-3.5 0,-7.7 2,-8.3c2,-0.4 2.5,1.1 4.1,3.4z" fill="#ffffff" stroke="none" stroke-width="1" stroke-linecap="butt" stroke-linejoin="miter"/></g><path d="M229.7,211.5c-1.8,1.2 -8,5.6 -15.9,8.1l-0.4,0.1c-0.4,0.1 -0.6,0.6 -0.4,1c1.7,2.4 4.8,7.2 -0.7,8.9c-5.3,1.7 -15.2,-12.4 -11,-16.1c1.9,-1.4 3.6,-0.7 4.5,-0.3c0.5,0.2 1,0.2 1.5,0.1c1.2,-0.4 3.4,-1.2 5.1,-2.1c4.3,-2.2 5.3,-3.1 7.3,-4.6c2,-1.5 6.6,-5.2 10.3,-2c3.2,2.7 1.4,5.7 -0.3,6.9z" fill="#ffab19" fill-rule="evenodd" stroke="#001026" stroke-width="1.2" stroke-linecap="round" stroke-linejoin="round"/><path d="M245.6,190.7c0.5,0.4 6.6,7.6 8.6,5.8c2.4,-2.1 5.7,-6.2 9.3,-2.9c3.6,3.3 -3.2,8.9 -6.1,10.4c-6.9,3.1 -12.5,-2.8 -13.7,-4.4c-1.2,-1.6 -3.3,-4.3 -3.3,-6.9c0.1,-2.8 3.5,-3.5 5.2,-2z" fill="#ffab19" fill-rule="evenodd" stroke="#001026" stroke-width="1.2" stroke-linecap="round" stroke-linejoin="round"/><g fill-rule="evenodd"><path d="M245.7,214c2.1,1.9 6.7,5.8 6.7,5.8c0,0 14.3,-2.5 14.3,4.7c0,4.3 -7.2,5.3 -16.9,4.4c-0.6,-0.1 -1.2,-0.3 -1.7,-0.7c-2.2,-1.9 -8.5,-7.5 -12.5,-11.4c-5.9,-5.8 -10.8,-9.6 -10.8,-9.6c-8.5,-8.3 -1.6,-11.8 1.1,-16.6c2.5,-4.1 3.6,-3.3 9.6,-2.1c3.4,0.5 5.4,0.8 7.6,0.7c3.3,-0.1 2.7,4.7 1.8,7.2c0,0 -1.4,3.7 -2.7,5.6c-1.6,2.3 -2.8,3.8 -4,4.7z" fill="#ffab19" stroke="#001026" stroke-width="1.2" stroke-linecap="round" stroke-linejoin="round"/><path d="M237.3,206.6c0,0 -1.5,-1.2 -3.1,-2.7c-2,-1.8 -4,-3.3 -2,-6.4c1.8,-2.4 3.5,-5.6 8,-2.7c4.3,2.7 2.4,5.2 2.4,5.2c-2.2,4.5 -5.3,6.6 -5.3,6.6z" fill="#ffffff" stroke="none" stroke-width="1" stroke-linecap="butt" stroke-linejoin="miter"/></g><path d="M222.2,198.4c2.2,2.8 5.6,6.3 1.3,9.2c-5.9,3.3 -10.8,-6.7 -11.8,-10.2c-0.9,-3.1 1.7,-5.1 3.9,-6.8c4.3,-3.1 7.9,-5.9 11.9,-4.4c5,1.8 1.4,5.8 -1.1,7.6c-1.5,1.1 -3,2.3 -4.1,3c-0.3,0.5 -0.4,1.1 -0.1,1.6z" fill="#ffab19" fill-rule="evenodd" stroke="#001026" stroke-width="1.2" stroke-linecap="round" stroke-linejoin="round"/><g fill-rule="evenodd"><path d="M253.7,131c0.3,-0.2 0.8,-0.1 0.9,0.3l2.6,10.7c0,0 6.4,4.7 8.3,8c3.2,5.5 3.3,10 3.3,10c0,0 7.1,2.1 8.3,7.8c1.2,5.7 -3.2,16.5 -22,20.2c-18.8,3.7 -33.9,-1.4 -41,-12.8c-7.1,-11.4 4.1,-25 3.5,-24.2l-2.1,-17.9c-0.1,-0.4 0.4,-0.7 0.8,-0.5l12.1,7.9c0,0 4.5,-1.7 9.2,-1.9c2.8,-0.2 5.2,0 7.5,0.4z" fill="#ffab19" stroke="#001026" stroke-width="1.2" stroke-linecap="butt" stroke-linejoin="miter"/><path d="M268.5,160.4c0,0 6.9,1.8 8.1,7.5c1.2,5.7 -3.6,16 -22.2,19.6c-24.2,5 -35.7,-9.4 -29,-20c6.7,-10.7 18.2,-1.6 26.6,-2.2c7.2,-0.5 8,-6.8 16.5,-4.9z" fill="#ffffff" stroke="none" stroke-width="1" stroke-linecap="butt" stroke-linejoin="miter"/><path d="M237,171.1c0,-0.4 0.4,-0.7 0.8,-0.6c1.9,0.7 7.3,2.3 13.3,2.7c5.4,0.3 8.6,0 10.1,-0.3c0.5,-0.1 0.9,0.4 0.7,0.9c-0.9,2.7 -4.7,10.2 -15.2,9.6c-9.1,-1 -10,-7.4 -9.7,-12.3z" fill="#ffffff" stroke="#001026" stroke-width="1.2" stroke-linecap="round" stroke-linejoin="round"/><path d="M286.9,161.5c-4.7,3.8 -11.9,3.9 -11.9,3.9" fill="none" stroke="#001026" stroke-width="1.2" stroke-linecap="round" stroke-linejoin="round"/><path d="M285.6,172.7c-6.3,0.5 -10.2,-1.4 -10.2,-1.4" fill="none" stroke="#001026" stroke-width="1.2" stroke-linecap="round" stroke-linejoin="round"/><path d="M251.6,162.7c2.1,0 4.3,0.2 4.4,0.9c0.1,1.4 -1.4,4.2 -3,4.3c-1.8,0.2 -6,-2.3 -6,-3.9c-0.1,-1.2 2.6,-1.3 4.6,-1.3z" fill="#001026" stroke="#001026" stroke-width="1.2" stroke-linecap="round" stroke-linejoin="round"/><path d="M206.6,161.2c0,0 8.6,2.8 12.1,5.9" fill="none" stroke="#001026" stroke-width="1.2" stroke-linecap="round" stroke-linejoin="round"/><path d="M219,170.6c-4.3,1.7 -11.7,0.6 -11.7,0.6" fill="none" stroke="#001026" stroke-width="1.2" stroke-linecap="round" stroke-linejoin="round"/><g><path d="M263.4,151c2.9,4.5 3,9.6 0.2,11.4c-2.8,1.8 -7.4,-0.3 -10.4,-4.8c-2.9,-4.5 -3,-9.6 -0.2,-11.4c2.8,-1.9 7.5,0.3 10.4,4.8z" fill="#ffffff" stroke="#001026" stroke-width="1.2" stroke-linecap="round" stroke-linejoin="round"/><path d="M263,156.7c0,1.1 -0.8,2 -1.8,2c-1,0 -1.8,-0.9 -1.8,-2c0,-1.1 0.8,-2 1.8,-2c1,0 1.8,0.9 1.8,2" fill="#001026" stroke="none" stroke-width="1" stroke-linecap="butt" stroke-linejoin="miter"/></g><g><path d="M238.6,153.8c3,4.4 2.8,9.8 0.1,11.7c-3.3,1.9 -7.7,0.5 -10.7,-3.9c-3.1,-4.4 -3.3,-10.1 -0.2,-12.3c3.1,-2.3 7.8,0.1 10.8,4.5z" fill="#ffffff" stroke="#001026" stroke-width="1.2" stroke-linecap="round" stroke-linejoin="round"/><path d="M238,159.6c0,1.1 -0.8,2 -1.8,2c-1,0 -1.8,-0.9 -1.8,-2c0,-1.1 0.8,-2 1.8,-2c1,0.1 1.8,0.9 1.8,2" fill="#001026" stroke="none" stroke-width="1" stroke-linecap="butt" stroke-linejoin="miter"/></g></g><path d="M243.47287,223.85995c0.04263,-2.68689 3.69128,-5.29112 5.57108,-6.42429c0,0 0.93334,-0.56 1.68694,0.06912c0.21883,-0.05557 0.47836,-0.05785 0.78373,0.02898c0.55901,-0.05113 1.21344,0.02417 1.72428,-0.04853c3.55935,-0.5066 8.15531,-0.27963 11.68449,0.30756c2.22695,0.80656 3.6469,2.49274 3.88243,4.29114c0.91192,0.92088 1.17097,2.21047 0.19185,4.00967c-0.38989,0.71644 -1.14369,1.16326 -1.71553,1.74488c-1.13575,0.58124 -2.14133,1.47669 -3.37322,1.80865c-0.25567,0.0689 -3.11527,0.05443 -3.56028,0.05443c-2.74004,0 -6.15172,0.52879 -8.90876,-0.22835c-1.37156,0.07671 -3.00308,0.22876 -4.13116,-0.0894c-3.05718,-0.86221 -4.4481,-3.27623 -3.83584,-5.52384z" fill="#06d000" fill-rule="nonzero" stroke="none" stroke-width="0.5" stroke-linecap="butt" stroke-linejoin="miter"/><path d="M261.37155,219.79342c0.77174,1.28624 -0.5145,2.05798 -0.5145,2.05798l-1.0277,0.56439c-0.56966,0.98188 -2.89298,3.94404 -3.95522,4.10222c-1.53058,0.22791 -3.0572,-1.63012 -3.95922,-2.52228c0,0 -1.06066,-1.06066 0,-2.12132c1.06066,-1.06066 2.12132,0 2.12132,0c0.39303,0.39832 0.83682,0.75226 1.17908,1.19497c0.10443,0.13508 0.01036,0.61951 0.12818,0.49593c0.75115,-0.78785 1.72128,-2.2295 2.36455,-3.27084l1.60553,-1.01555c0,0 1.28624,-0.77174 2.05798,0.5145z" fill="#d1d1d1" fill-rule="nonzero" stroke="none" stroke-width="0.5" stroke-linecap="butt" stroke-linejoin="miter"/><path d="M241.87391,225.49977c-1.24808,-0.83205 -0.41603,-2.08013 -0.41603,-2.08013l1.30038,-1.38095c0.89161,-0.29481 1.75941,-0.98318 2.60168,-1.57385c0.33214,-0.5043 1.03185,-0.96701 1.74355,-1.6755l1.00559,-1.25699c0.27463,-0.34938 0.70109,-0.57378 1.17996,-0.57378c0.02596,0 0.05176,0.00066 0.0774,0.00196c0.15164,-0.10837 0.30722,-0.21348 0.46748,-0.31485c0,0 1.28624,-0.77174 2.05798,0.5145c0.77174,1.28624 -0.5145,2.05798 -0.5145,2.05798c-0.3415,0.18755 -0.66779,0.41599 -0.98429,0.67161l-0.20769,0.62308l-0.12872,-0.04291c-0.02931,0.1711 -0.06976,0.34031 -0.12424,0.50716c-0.18112,0.55463 -1.01546,0.58059 -1.46805,0.95369c-0.44978,0.66139 -0.90226,1.31214 -1.61148,1.60708c-0.08336,0.03467 -0.16762,0.06606 -0.25269,0.09454l0.03735,0.06225l-1.29548,0.77729c-0.23004,0.14352 -0.50178,0.22644 -0.79288,0.22644c-0.08762,0 -0.17348,-0.00751 -0.25698,-0.02193c-0.18528,0.07007 -0.37984,0.1393 -0.5853,0.20828l0.24709,0.199c0,0 -0.83205,1.24808 -2.08013,0.41603z" fill="#d1d1d1" fill-rule="nonzero" stroke="none" stroke-width="0.5" stroke-linecap="butt" stroke-linejoin="miter"/><path d="M217.23968,226.59116c0.55709,1.39272 -0.83563,1.9498 -0.83563,1.9498l-0.58746,-0.09432c-0.04903,0.07392 -0.09755,0.14581 -0.14559,0.21571c0.06035,0.16549 0.09603,0.36115 0.09603,0.59249c0,1.5 -1.5,1.5 -1.5,1.5c-0.37593,-0.00097 -0.75186,-0.00194 -1.12779,-0.00291c-0.26265,0.04133 -0.53556,0.03827 -0.8269,-0.00172l-0.1519,0.02532v0.24263l-1.57994,0c-0.70323,0 -1.29343,-0.48392 -1.45576,-1.13692c-0.60474,-0.03674 -1.14922,-0.11783 -1.57788,-0.23412c-2.64165,-0.71664 -4.00663,-3.73978 -5.78505,-5.5256c-1.66157,-2.74294 -5.88981,-6.83417 -3.85618,-10.5259c2.18959,-3.97484 7.01036,-0.542 9.50762,-3.30744l1.85063,-0.43934c0,0 1.22937,0 1.4622,1.11296c1.59861,1.09208 2.92055,2.76957 3.40658,4.72647c0.32596,1.3124 -0.52055,3.67962 -0.03013,4.90704c0.56196,1.40645 1.83034,3.22676 1.97919,5.05815c0.41192,0.04124 0.88514,0.25567 1.15796,0.93771z" fill="#07d001" fill-rule="nonzero" stroke="none" stroke-width="0.5" stroke-linecap="butt" stroke-linejoin="miter"/><path d="M210.2399,210.12375c2.38676,0.37405 4.80309,1.25113 5.70589,3.88846c1.01494,2.96491 -0.77458,6.20531 -4.28111,4.68682c-1.18706,-0.51405 -2.57917,-3.4019 -3.40098,-4.43518l-0.02132,-0.16602l-0.05682,0.02841l-0.77648,-1.55295c-0.10974,-0.20845 -0.17185,-0.44587 -0.17185,-0.69781c0,-0.82843 0.67157,-1.5 1.5,-1.5c0.12284,0 0.24224,0.01477 0.35651,0.04262c0.4948,-0.37578 1.14616,-0.29436 1.14616,-0.29436z" fill="#d0d0d1" fill-rule="nonzero" stroke="none" stroke-width="0.5" stroke-linecap="butt" stroke-linejoin="miter"/><path d="M209.5272,223.38178c-0.37819,0 -0.66103,-0.09535 -0.87256,-0.23798c-1.72069,0.07283 -4.34512,0.21661 -5.26377,-0.80587c-0.43461,-0.48373 -0.36682,-3.4643 -0.36682,-4.40601c0,0 0,-1.5 1.5,-1.5c1.5,0 1.5,1.5 1.5,1.5c0,0.82261 -0.85469,1.77809 -0.36682,2.4404c0.1688,0.22916 0.53353,-0.21874 0.81642,-0.2501c1.01165,-0.11215 2.0357,-0.00377 3.05355,-0.00377l1.5,1.76332c0,0 0,1.5 -1.5,1.5z" fill="#d0d0d1" fill-rule="nonzero" stroke="none" stroke-width="0.5" stroke-linecap="butt" stroke-linejoin="miter"/></g></g></svg>