<?xml version="1.0" encoding="UTF-8" standalone="no"?>
<!-- Created with Inkscape (http://www.inkscape.org/) -->

<svg
   width="210mm"
   height="297mm"
   viewBox="0 0 210 297"
   version="1.1"
   id="svg5"
   inkscape:version="1.2.2 (732a01da63, 2022-12-09)"
   sodipodi:docname="mnozice.svg"
   inkscape:export-filename="mnozice-plain.svg"
   inkscape:export-xdpi="150"
   inkscape:export-ydpi="150"
   xmlns:inkscape="http://www.inkscape.org/namespaces/inkscape"
   xmlns:sodipodi="http://sodipodi.sourceforge.net/DTD/sodipodi-0.dtd"
   xmlns="http://www.w3.org/2000/svg"
   xmlns:svg="http://www.w3.org/2000/svg">
  <sodipodi:namedview
     id="namedview7"
     pagecolor="#ffffff"
     bordercolor="#000000"
     borderopacity="0.25"
     inkscape:showpageshadow="2"
     inkscape:pageopacity="0.0"
     inkscape:pagecheckerboard="0"
     inkscape:deskcolor="#d1d1d1"
     inkscape:document-units="mm"
     showgrid="false"
     inkscape:zoom="1.5108866"
     inkscape:cx="386.528"
     inkscape:cy="268.38546"
     inkscape:window-width="3072"
     inkscape:window-height="1657"
     inkscape:window-x="-8"
     inkscape:window-y="-8"
     inkscape:window-maximized="1"
     inkscape:current-layer="layer1"
     showguides="true" />
  <defs
     id="defs2" />
  <g
     inkscape:label="Layer 1"
     inkscape:groupmode="layer"
     id="layer1">
    <circle
       style="fill:#ff7700;fill-opacity:0.567134;fill-rule:evenodd;stroke-width:0.264583"
       id="path234"
       cx="48.014481"
       cy="55.954521"
       r="30.47052"
       inkscape:export-filename="mnozice.png"
       inkscape:export-xdpi="150"
       inkscape:export-ydpi="150" />
    <circle
       style="fill:#e54240;fill-opacity:0.54902;fill-rule:evenodd;stroke-width:0.264583"
       id="circle396"
       cx="78.485001"
       cy="55.954517"
       r="30.47052" />
    <circle
       style="fill:#367700;fill-opacity:0.567134;fill-rule:evenodd;stroke-width:0.264583"
       id="circle952"
       cx="63.183594"
       cy="86.425041"
       r="30.47052" />
    <text
       xml:space="preserve"
       style="font-style:normal;font-variant:normal;font-weight:normal;font-stretch:normal;font-size:4.23333px;line-height:1.25;font-family:Consolas;-inkscape-font-specification:'Consolas, Normal';font-variant-ligatures:normal;font-variant-caps:normal;font-variant-numeric:normal;font-variant-east-asian:normal;fill:#367700;fill-opacity:1;fill-rule:evenodd;stroke-width:0.264583"
       x="58.458305"
       y="120.98196"
       id="text1008"><tspan
         sodipodi:role="line"
         id="tspan1006"
         style="font-style:normal;font-variant:normal;font-weight:normal;font-stretch:normal;font-size:4.23333px;font-family:Consolas;-inkscape-font-specification:'Consolas, Normal';font-variant-ligatures:normal;font-variant-caps:normal;font-variant-numeric:normal;font-variant-east-asian:normal;fill:#367700;fill-opacity:1;stroke-width:0.264583"
         x="58.458305"
         y="120.98196">Lara</tspan></text>
    <text
       xml:space="preserve"
       style="font-style:normal;font-variant:normal;font-weight:normal;font-stretch:normal;font-size:4.23333px;line-height:1.25;font-family:Consolas;-inkscape-font-specification:'Consolas, Normal';font-variant-ligatures:normal;font-variant-caps:normal;font-variant-numeric:normal;font-variant-east-asian:normal;fill:#e54240;fill-opacity:1;fill-rule:evenodd;stroke-width:0.264583"
       x="73.895103"
       y="23.234161"
       id="text1012"><tspan
         sodipodi:role="line"
         id="tspan1010"
         style="font-style:normal;font-variant:normal;font-weight:normal;font-stretch:normal;font-size:4.23333px;font-family:Consolas;-inkscape-font-specification:'Consolas, Normal';font-variant-ligatures:normal;font-variant-caps:normal;font-variant-numeric:normal;font-variant-east-asian:normal;fill:#e54240;fill-opacity:1;stroke-width:0.264583"
         x="73.895103"
         y="23.234161">Tomi</tspan></text>
    <text
       xml:space="preserve"
       style="font-style:normal;font-variant:normal;font-weight:normal;font-stretch:normal;font-size:4.23333px;line-height:1.25;font-family:Consolas;-inkscape-font-specification:'Consolas, Normal';font-variant-ligatures:normal;font-variant-caps:normal;font-variant-numeric:normal;font-variant-east-asian:normal;fill:#ff7600;fill-opacity:1;fill-rule:evenodd;stroke-width:0.264583"
       x="43.479359"
       y="23.234161"
       id="text1601"><tspan
         sodipodi:role="line"
         id="tspan1599"
         style="font-style:normal;font-variant:normal;font-weight:normal;font-stretch:normal;font-size:4.23333px;font-family:Consolas;-inkscape-font-specification:'Consolas, Normal';font-variant-ligatures:normal;font-variant-caps:normal;font-variant-numeric:normal;font-variant-east-asian:normal;fill:#ff7600;fill-opacity:1;stroke-width:0.264583"
         x="43.479359"
         y="23.234161">Maja</tspan></text>
    <text
       xml:space="preserve"
       style="font-style:normal;font-variant:normal;font-weight:normal;font-stretch:normal;font-size:4.23333px;line-height:1.25;font-family:Consolas;-inkscape-font-specification:'Consolas, Normal';font-variant-ligatures:normal;font-variant-caps:normal;font-variant-numeric:normal;font-variant-east-asian:normal;fill:#367700;fill-opacity:1;fill-rule:evenodd;stroke-width:0.264583"
       x="38.025486"
       y="80.409973"
       id="text1763"><tspan
         sodipodi:role="line"
         id="tspan1761"
         style="font-style:normal;font-variant:normal;font-weight:normal;font-stretch:normal;font-size:4.23333px;font-family:Consolas;-inkscape-font-specification:'Consolas, Normal';font-variant-ligatures:normal;font-variant-caps:normal;font-variant-numeric:normal;font-variant-east-asian:normal;fill:#000000;fill-opacity:1;stroke-width:0.264583"
         x="38.025486"
         y="80.409973">Shakira</tspan></text>
    <text
       xml:space="preserve"
       style="font-style:normal;font-variant:normal;font-weight:normal;font-stretch:normal;font-size:4.23333px;line-height:1.25;font-family:Consolas;-inkscape-font-specification:'Consolas, Normal';font-variant-ligatures:normal;font-variant-caps:normal;font-variant-numeric:normal;font-variant-east-asian:normal;fill:#000000;fill-opacity:1;fill-rule:evenodd;stroke-width:0.264583"
       x="84.733894"
       y="56.984943"
       id="text1817"><tspan
         sodipodi:role="line"
         id="tspan7463"
         x="84.733894"
         y="56.984943">Newsboys</tspan></text>
    <text
       xml:space="preserve"
       style="font-style:normal;font-variant:normal;font-weight:normal;font-stretch:normal;font-size:4.23333px;line-height:1.25;font-family:Consolas;-inkscape-font-specification:'Consolas, Normal';font-variant-ligatures:normal;font-variant-caps:normal;font-variant-numeric:normal;font-variant-east-asian:normal;fill:#367700;fill-opacity:1;fill-rule:evenodd;stroke-width:0.264583"
       x="52.68399"
       y="67.828751"
       id="text1821"><tspan
         sodipodi:role="line"
         id="tspan1819"
         style="font-style:normal;font-variant:normal;font-weight:normal;font-stretch:normal;font-size:4.23333px;font-family:Consolas;-inkscape-font-specification:'Consolas, Normal';font-variant-ligatures:normal;font-variant-caps:normal;font-variant-numeric:normal;font-variant-east-asian:normal;fill:#000000;fill-opacity:1;stroke-width:0.264583"
         x="52.68399"
         y="67.828751">Joker Out</tspan></text>
    <text
       xml:space="preserve"
       style="font-style:normal;font-variant:normal;font-weight:normal;font-stretch:normal;font-size:4.23333px;line-height:1.25;font-family:Consolas;-inkscape-font-specification:'Consolas, Normal';font-variant-ligatures:normal;font-variant-caps:normal;font-variant-numeric:normal;font-variant-east-asian:normal;fill:#367700;fill-opacity:1;fill-rule:evenodd;stroke-width:0.264583"
       x="48.215012"
       y="99.725945"
       id="text2551"><tspan
         sodipodi:role="line"
         id="tspan2549"
         style="font-style:normal;font-variant:normal;font-weight:normal;font-stretch:normal;font-size:4.23333px;font-family:Consolas;-inkscape-font-specification:'Consolas, Normal';font-variant-ligatures:normal;font-variant-caps:normal;font-variant-numeric:normal;font-variant-east-asian:normal;fill:#000000;fill-opacity:1;stroke-width:0.264583"
         x="48.215012"
         y="99.725945">Vlado Kreslin</tspan></text>
    <text
       xml:space="preserve"
       style="font-style:normal;font-variant:normal;font-weight:normal;font-stretch:normal;font-size:4.23333px;line-height:1.25;font-family:Consolas;-inkscape-font-specification:'Consolas, Normal';font-variant-ligatures:normal;font-variant-caps:normal;font-variant-numeric:normal;font-variant-east-asian:normal;fill:#367700;fill-opacity:1;fill-rule:evenodd;stroke-width:0.264583"
       x="51.627724"
       y="50.407562"
       id="text2559"><tspan
         sodipodi:role="line"
         id="tspan2557"
         style="font-style:normal;font-variant:normal;font-weight:normal;font-stretch:normal;font-size:4.23333px;font-family:Consolas;-inkscape-font-specification:'Consolas, Normal';font-variant-ligatures:normal;font-variant-caps:normal;font-variant-numeric:normal;font-variant-east-asian:normal;fill:#000000;fill-opacity:1;stroke-width:0.264583"
         x="51.627724"
         y="50.407562">The Weeknd</tspan></text>
    <circle
       style="fill:none;fill-opacity:1;fill-rule:evenodd;stroke:#000000;stroke-width:0.965;stroke-dasharray:none;stroke-opacity:1"
       id="circle7528"
       cx="144.95148"
       cy="263.44543"
       r="30.47052"
       inkscape:export-filename="mnozice-razlika.png"
       inkscape:export-xdpi="150"
       inkscape:export-ydpi="150" />
    <circle
       style="font-variation-settings:normal;opacity:1;vector-effect:none;fill:none;fill-opacity:1;fill-rule:evenodd;stroke:#000000;stroke-width:0.965;stroke-linecap:butt;stroke-linejoin:miter;stroke-miterlimit:4;stroke-dasharray:none;stroke-dashoffset:0;stroke-opacity:1;-inkscape-stroke:none;stop-color:#000000;stop-opacity:1"
       id="circle7530"
       cx="171.40097"
       cy="263.44543"
       r="30.47052" />
    <circle
       style="fill:none;fill-opacity:1;fill-rule:evenodd;stroke:#000000;stroke-width:0.965;stroke-dasharray:none;stroke-opacity:1"
       id="circle7532"
       cx="50.88868"
       cy="200.75877"
       r="30.47052"
       inkscape:export-filename="mnozice-unija.png"
       inkscape:export-xdpi="150"
       inkscape:export-ydpi="150" />
    <circle
       style="font-variation-settings:normal;opacity:1;vector-effect:none;fill:none;fill-opacity:1;fill-rule:evenodd;stroke:#000000;stroke-width:0.965;stroke-linecap:butt;stroke-linejoin:miter;stroke-miterlimit:4;stroke-dasharray:none;stroke-dashoffset:0;stroke-opacity:1;-inkscape-stroke:none;stop-color:#000000;stop-opacity:1"
       id="circle7534"
       cx="77.338173"
       cy="200.75877"
       r="30.47052" />
    <path
       style="font-variation-settings:normal;opacity:1;vector-effect:none;fill:#e54240;fill-opacity:1;fill-rule:evenodd;stroke:#e54240;stroke-width:0.264583;-inkscape-stroke:none;stop-color:#000000;stop-opacity:1"
       d="m 143.34599,293.36944 c -5.28803,-0.33782 -10.08918,-1.8845 -14.48777,-4.66723 -2.9172,-1.84554 -5.77113,-4.49424 -7.91059,-7.34168 -2.75986,-3.67318 -4.73923,-8.27921 -5.5188,-12.84235 -0.31946,-1.86989 -0.37404,-2.59839 -0.37574,-5.01499 -0.002,-2.30185 0.0378,-2.94 0.27934,-4.51968 1.29212,-8.45134 6.06216,-15.89341 13.18527,-20.5713 8.17299,-5.36737 18.42641,-6.40901 27.51209,-2.79494 0.49842,0.19826 0.90603,0.3755 0.90581,0.39387 -2.5e-4,0.0184 -0.20223,0.14277 -0.44888,0.27644 -3.7133,2.01242 -7.27593,5.11099 -9.90017,8.6106 -4.75537,6.34161 -6.92335,14.50584 -5.92958,22.32968 1.00553,7.91639 4.847,14.9496 10.95448,20.05605 1.24695,1.0426 3.14657,2.34871 4.53876,3.12071 0.42987,0.23837 0.78252,0.45056 0.78369,0.47157 0.003,0.0514 -1.45537,0.63074 -2.34511,0.93173 -2.10696,0.71276 -4.35374,1.2028 -6.63024,1.44608 -0.85551,0.0914 -3.82513,0.16576 -4.61256,0.11544 z"
       id="path7824" />
    <path
       style="font-variation-settings:normal;opacity:1;vector-effect:none;fill:#e54240;fill-opacity:1;fill-rule:evenodd;stroke:#e54240;stroke-width:0.264583;-inkscape-stroke:none;stop-color:#000000;stop-opacity:1"
       d="m 46.992374,230.43358 c -4.456126,-0.60445 -8.780817,-2.21888 -12.489267,-4.66231 -2.784533,-1.83467 -5.508609,-4.37377 -7.468568,-6.96134 -2.308696,-3.04803 -4.159097,-6.86718 -5.129554,-10.58723 -1.127982,-4.32387 -1.211585,-9.55766 -0.223256,-13.97626 1.236695,-5.52898 4.00212,-10.54585 8.031049,-14.56946 4.720508,-4.71428 10.25743,-7.51118 16.943911,-8.55898 1.926135,-0.30183 6.39568,-0.30589 8.391673,-0.008 2.38828,0.35689 5.333497,1.16214 7.348829,2.00925 l 0.483658,0.2033 -0.793226,0.43866 c -4.083066,2.25796 -7.926012,5.85435 -10.691212,10.00527 -0.95845,1.43876 -2.581748,4.66805 -3.221768,6.40919 -1.144084,3.11243 -1.677471,6.07611 -1.765935,9.81216 -0.072,3.04088 0.09724,4.95988 0.660721,7.49152 1.845775,8.29291 7.091373,15.54874 14.383967,19.89624 l 1.397264,0.83299 -0.592389,0.23818 c -2.396723,0.96358 -5.077944,1.66602 -7.625918,1.99792 -1.828954,0.23823 -5.843471,0.2322 -7.639979,-0.0114 z"
       id="path7826" />
    <path
       style="font-variation-settings:normal;opacity:1;vector-effect:none;fill:#e54240;fill-opacity:1;fill-rule:evenodd;stroke:#e54240;stroke-width:0.264583;-inkscape-stroke:none;stop-color:#000000;stop-opacity:1"
       d="m 62.654514,226.824 c -3.908205,-2.26256 -6.948025,-4.96845 -9.49003,-8.44749 -4.11086,-5.6262 -6.18808,-12.8071 -5.677397,-19.62658 0.543814,-7.26189 3.376011,-13.61443 8.354774,-18.73952 2.229009,-2.29452 4.609544,-4.1301 7.156095,-5.5179 l 1.084422,-0.59098 1.190688,0.6362 c 2.449139,1.30861 4.551368,2.89336 6.735649,5.07764 4.614637,4.61464 7.400395,10.11613 8.497726,16.78185 0.317026,1.92577 0.320011,6.72395 0.0054,8.71245 -1.048237,6.62575 -4.05071,12.46177 -8.771083,17.04869 -1.581795,1.5371 -2.626976,2.39292 -4.256899,3.48575 -1.270866,0.85207 -3.151117,1.89561 -3.41552,1.89561 -0.09765,0 -0.733875,-0.32208 -1.413835,-0.71572 z"
       id="path7828" />
    <path
       style="font-variation-settings:normal;opacity:1;vector-effect:none;fill:#e54240;fill-opacity:1;fill-rule:evenodd;stroke:#e54240;stroke-width:0.264583;-inkscape-stroke:none;stop-color:#000000;stop-opacity:1"
       d="m 73.862848,230.4967 c -2.218491,-0.25455 -5.088432,-0.96549 -7.218645,-1.78818 -0.62116,-0.2399 -1.149937,-0.45673 -1.175068,-0.48186 -0.02513,-0.0251 0.362607,-0.28165 0.861637,-0.57005 4.544798,-2.62649 8.525436,-6.55044 11.194116,-11.03468 2.060559,-3.46239 3.404891,-7.22829 4.037116,-11.30917 0.31973,-2.0638 0.385138,-6.44813 0.123772,-8.29641 -0.517745,-3.66129 -1.475894,-6.84441 -2.981844,-9.90617 -1.670171,-3.39563 -3.54281,-5.95127 -6.360101,-8.67979 -1.809581,-1.75256 -3.443124,-3.01213 -5.559859,-4.287 l -1.380982,-0.83174 0.607986,-0.26189 c 3.473764,-1.4963 8.324492,-2.34666 12.433474,-2.17964 4.419243,0.17962 8.081775,1.10536 12.073139,3.05159 3.812381,1.85896 7.534023,4.82991 10.161151,8.11157 5.44483,6.80133 7.65359,15.63765 6.0615,24.24942 -1.52681,8.25865 -6.59863,15.58428 -13.880237,20.04827 -3.622312,2.22068 -8.000108,3.71687 -12.212743,4.17396 -1.397135,0.15158 -5.43424,0.14671 -6.784412,-0.008 z"
       id="path7830" />
    <circle
       style="fill:none;fill-opacity:1;fill-rule:evenodd;stroke:#000000;stroke-width:0.965;stroke-dasharray:none;stroke-opacity:1"
       id="circle7832"
       cx="50.88868"
       cy="263.46542"
       r="30.47052"
       inkscape:export-filename="mnozice-sim-razlika.png"
       inkscape:export-xdpi="150"
       inkscape:export-ydpi="150" />
    <circle
       style="font-variation-settings:normal;opacity:1;vector-effect:none;fill:none;fill-opacity:1;fill-rule:evenodd;stroke:#000000;stroke-width:0.965;stroke-linecap:butt;stroke-linejoin:miter;stroke-miterlimit:4;stroke-dasharray:none;stroke-dashoffset:0;stroke-opacity:1;-inkscape-stroke:none;stop-color:#000000;stop-opacity:1"
       id="circle7834"
       cx="77.338173"
       cy="263.46542"
       r="30.47052" />
    <path
       style="font-variation-settings:normal;opacity:1;vector-effect:none;fill:#e54240;fill-opacity:1;fill-rule:evenodd;stroke:#e54240;stroke-width:0.264583;-inkscape-stroke:none;stop-color:#000000;stop-opacity:1"
       d="m 46.992388,293.14023 c -4.45613,-0.60444 -8.78082,-2.21887 -12.48927,-4.6623 -2.78453,-1.83467 -5.50861,-4.37377 -7.46857,-6.96134 -2.30869,-3.04803 -4.15909,-6.86719 -5.12955,-10.58723 -1.12798,-4.32387 -1.21158,-9.55766 -0.22326,-13.97626 1.2367,-5.52898 4.00212,-10.54585 8.03105,-14.56947 4.72051,-4.71427 10.25743,-7.51117 16.94391,-8.55897 1.92614,-0.30183 6.39568,-0.3059 8.39168,-0.008 2.38828,0.35689 5.33349,1.16214 7.34883,2.00925 l 0.48365,0.2033 -0.79322,0.43866 c -4.08307,2.25796 -7.92601,5.85435 -10.69121,10.00527 -0.95845,1.43876 -2.58175,4.66805 -3.22177,6.40919 -1.14409,3.11242 -1.67747,6.07611 -1.76594,9.81216 -0.072,3.04088 0.0973,4.95988 0.66072,7.49152 1.84578,8.29291 7.09138,15.54874 14.38397,19.89624 l 1.39727,0.83299 -0.59239,0.23818 c -2.39673,0.96358 -5.07795,1.66602 -7.62592,1.99792 -1.82896,0.23823 -5.84347,0.23219 -7.63998,-0.0114 z"
       id="path7836" />
    <path
       style="font-variation-settings:normal;opacity:1;vector-effect:none;fill:#e54240;fill-opacity:1;fill-rule:evenodd;stroke:#e54240;stroke-width:0.264583;-inkscape-stroke:none;stop-color:#000000;stop-opacity:1"
       d="m 73.862858,293.20336 c -2.21849,-0.25455 -5.08843,-0.96549 -7.21864,-1.78818 -0.62116,-0.2399 -1.14994,-0.45673 -1.17507,-0.48186 -0.0251,-0.0251 0.36261,-0.28165 0.86164,-0.57005 4.5448,-2.62649 8.52543,-6.55045 11.19411,-11.03468 2.06056,-3.46239 3.40489,-7.22829 4.03712,-11.30917 0.31973,-2.0638 0.38514,-6.44813 0.12377,-8.29641 -0.51774,-3.66129 -1.47589,-6.84441 -2.98184,-9.90617 -1.67017,-3.39563 -3.54281,-5.95127 -6.3601,-8.67979 -1.80958,-1.75256 -3.44313,-3.01213 -5.55986,-4.287 l -1.38098,-0.83174 0.60798,-0.26189 c 3.47377,-1.4963 8.32449,-2.34666 12.43348,-2.17965 4.41924,0.17962 8.08177,1.10536 12.07313,3.0516 3.81239,1.85896 7.53403,4.82991 10.161162,8.11156 5.44482,6.80134 7.65359,15.63765 6.06149,24.24943 -1.52681,8.25865 -6.59863,15.58427 -13.880232,20.04827 -3.62231,2.22068 -8.00011,3.71687 -12.21274,4.17396 -1.39714,0.15158 -5.43424,0.14671 -6.78442,-0.008 z"
       id="path7840" />
    <g
       id="g9597"
       transform="translate(95.099196,-0.02543833)"
       inkscape:export-filename="mnozice-presek.png"
       inkscape:export-xdpi="150"
       inkscape:export-ydpi="150">
      <circle
         style="fill:none;fill-opacity:1;fill-rule:evenodd;stroke:#000000;stroke-width:0.965;stroke-dasharray:none;stroke-opacity:1"
         id="circle7493"
         cx="50.88868"
         cy="200.75877"
         r="30.47052"
         inkscape:export-filename="mnozice.png"
         inkscape:export-xdpi="150"
         inkscape:export-ydpi="150" />
      <circle
         style="font-variation-settings:normal;opacity:1;vector-effect:none;fill:none;fill-opacity:1;fill-rule:evenodd;stroke:#000000;stroke-width:0.965;stroke-linecap:butt;stroke-linejoin:miter;stroke-miterlimit:4;stroke-dasharray:none;stroke-dashoffset:0;stroke-opacity:1;-inkscape-stroke:none;stop-color:#000000;stop-opacity:1"
         id="circle7495"
         cx="77.338173"
         cy="200.75877"
         r="30.47052" />
      <path
         style="font-variation-settings:normal;opacity:1;vector-effect:none;fill:#e54240;fill-opacity:1;fill-rule:evenodd;stroke:#e54240;-inkscape-stroke:none;stop-color:#000000;stop-opacity:1"
         d="m 238.28471,858.23625 c -25.22142,-14.01924 -43.6925,-35.82815 -52.94323,-62.51037 -4.54239,-13.10177 -6.41813,-25.58038 -6.03905,-40.17552 0.47415,-18.2559 4.8982,-34.87548 13.48841,-50.67122 9.15883,-16.8413 22.67213,-31.29772 39.0478,-41.773 3.669,-2.34701 9.91541,-5.71174 10.59728,-5.7084 1.55601,0.008 14.78984,8.35428 20.48917,12.92263 4.55951,3.65473 12.20569,11.13977 16.03864,15.70065 21.77326,25.90826 30.90103,60.56489 24.62264,93.48815 -5.81264,30.48096 -23.12538,56.55087 -48.93457,73.68677 -4.64244,3.08233 -11.68582,7.06527 -12.48167,7.05823 -0.14256,-0.001 -1.891,-0.90932 -3.88542,-2.01792 z"
         id="path7751"
         transform="scale(0.26458333)" />
      <text
         xml:space="preserve"
         style="font-style:normal;font-variant:normal;font-weight:normal;font-stretch:normal;font-size:8.46667px;line-height:1.25;font-family:Consolas;-inkscape-font-specification:'Consolas, Normal';font-variant-ligatures:normal;font-variant-caps:normal;font-variant-numeric:normal;font-variant-east-asian:normal;fill:#000000;fill-opacity:1;fill-rule:evenodd;stroke-width:0.264583"
         x="30.935652"
         y="187.79405"
         id="text9296"><tspan
           sodipodi:role="line"
           id="tspan9294"
           style="font-style:normal;font-variant:normal;font-weight:normal;font-stretch:normal;font-size:8.46667px;font-family:Consolas;-inkscape-font-specification:'Consolas, Normal';font-variant-ligatures:normal;font-variant-caps:normal;font-variant-numeric:normal;font-variant-east-asian:normal;fill:#000000;fill-opacity:1;stroke-width:0.264583"
           x="30.935652"
           y="187.79405">A</tspan></text>
      <text
         xml:space="preserve"
         style="font-style:normal;font-variant:normal;font-weight:normal;font-stretch:normal;font-size:8.46667px;line-height:1.25;font-family:Consolas;-inkscape-font-specification:'Consolas, Normal';font-variant-ligatures:normal;font-variant-caps:normal;font-variant-numeric:normal;font-variant-east-asian:normal;fill:#000000;fill-opacity:1;fill-rule:evenodd;stroke-width:0.264583"
         x="93.211502"
         y="187.79405"
         id="text9402"><tspan
           sodipodi:role="line"
           id="tspan9400"
           style="font-style:normal;font-variant:normal;font-weight:normal;font-stretch:normal;font-size:8.46667px;font-family:Consolas;-inkscape-font-specification:'Consolas, Normal';font-variant-ligatures:normal;font-variant-caps:normal;font-variant-numeric:normal;font-variant-east-asian:normal;fill:#000000;fill-opacity:1;stroke-width:0.264583"
           x="93.211502"
           y="187.79405">B</tspan></text>
    </g>
    <text
       xml:space="preserve"
       style="font-style:normal;font-variant:normal;font-weight:normal;font-stretch:normal;font-size:8.46667px;line-height:1.25;font-family:Consolas;-inkscape-font-specification:'Consolas, Normal';font-variant-ligatures:normal;font-variant-caps:normal;font-variant-numeric:normal;font-variant-east-asian:normal;fill:#000000;fill-opacity:1;fill-rule:evenodd;stroke-width:0.264583"
       x="30.636055"
       y="250.67819"
       id="text9296-7"><tspan
         sodipodi:role="line"
         id="tspan9294-0"
         style="font-style:normal;font-variant:normal;font-weight:normal;font-stretch:normal;font-size:8.46667px;font-family:Consolas;-inkscape-font-specification:'Consolas, Normal';font-variant-ligatures:normal;font-variant-caps:normal;font-variant-numeric:normal;font-variant-east-asian:normal;fill:#000000;fill-opacity:1;stroke-width:0.264583"
         x="30.636055"
         y="250.67819">A</tspan></text>
    <text
       xml:space="preserve"
       style="font-style:normal;font-variant:normal;font-weight:normal;font-stretch:normal;font-size:8.46667px;line-height:1.25;font-family:Consolas;-inkscape-font-specification:'Consolas, Normal';font-variant-ligatures:normal;font-variant-caps:normal;font-variant-numeric:normal;font-variant-east-asian:normal;fill:#000000;fill-opacity:1;fill-rule:evenodd;stroke-width:0.264583"
       x="92.911903"
       y="250.67819"
       id="text9402-5"><tspan
         sodipodi:role="line"
         id="tspan9400-0"
         style="font-style:normal;font-variant:normal;font-weight:normal;font-stretch:normal;font-size:8.46667px;font-family:Consolas;-inkscape-font-specification:'Consolas, Normal';font-variant-ligatures:normal;font-variant-caps:normal;font-variant-numeric:normal;font-variant-east-asian:normal;fill:#000000;fill-opacity:1;stroke-width:0.264583"
         x="92.911903"
         y="250.67819">B</tspan></text>
    <text
       xml:space="preserve"
       style="font-style:normal;font-variant:normal;font-weight:normal;font-stretch:normal;font-size:8.46667px;line-height:1.25;font-family:Consolas;-inkscape-font-specification:'Consolas, Normal';font-variant-ligatures:normal;font-variant-caps:normal;font-variant-numeric:normal;font-variant-east-asian:normal;fill:#000000;fill-opacity:1;fill-rule:evenodd;stroke-width:0.264583"
       x="125.19415"
       y="250.6582"
       id="text9296-5"><tspan
         sodipodi:role="line"
         id="tspan9294-2"
         style="font-style:normal;font-variant:normal;font-weight:normal;font-stretch:normal;font-size:8.46667px;font-family:Consolas;-inkscape-font-specification:'Consolas, Normal';font-variant-ligatures:normal;font-variant-caps:normal;font-variant-numeric:normal;font-variant-east-asian:normal;fill:#000000;fill-opacity:1;stroke-width:0.264583"
         x="125.19415"
         y="250.6582">A</tspan></text>
    <text
       xml:space="preserve"
       style="font-style:normal;font-variant:normal;font-weight:normal;font-stretch:normal;font-size:8.46667px;line-height:1.25;font-family:Consolas;-inkscape-font-specification:'Consolas, Normal';font-variant-ligatures:normal;font-variant-caps:normal;font-variant-numeric:normal;font-variant-east-asian:normal;fill:#000000;fill-opacity:1;fill-rule:evenodd;stroke-width:0.264583"
       x="187.47"
       y="250.6582"
       id="text9402-2"><tspan
         sodipodi:role="line"
         id="tspan9400-09"
         style="font-style:normal;font-variant:normal;font-weight:normal;font-stretch:normal;font-size:8.46667px;font-family:Consolas;-inkscape-font-specification:'Consolas, Normal';font-variant-ligatures:normal;font-variant-caps:normal;font-variant-numeric:normal;font-variant-east-asian:normal;fill:#000000;fill-opacity:1;stroke-width:0.264583"
         x="187.47"
         y="250.6582">B</tspan></text>
    <text
       xml:space="preserve"
       style="font-style:normal;font-variant:normal;font-weight:normal;font-stretch:normal;font-size:8.46667px;line-height:1.25;font-family:Consolas;-inkscape-font-specification:'Consolas, Normal';font-variant-ligatures:normal;font-variant-caps:normal;font-variant-numeric:normal;font-variant-east-asian:normal;fill:#000000;fill-opacity:1;fill-rule:evenodd;stroke-width:0.264583"
       x="30.636042"
       y="187.97154"
       id="text9296-9"><tspan
         sodipodi:role="line"
         id="tspan9294-1"
         style="font-style:normal;font-variant:normal;font-weight:normal;font-stretch:normal;font-size:8.46667px;font-family:Consolas;-inkscape-font-specification:'Consolas, Normal';font-variant-ligatures:normal;font-variant-caps:normal;font-variant-numeric:normal;font-variant-east-asian:normal;fill:#000000;fill-opacity:1;stroke-width:0.264583"
         x="30.636042"
         y="187.97154">A</tspan></text>
    <text
       xml:space="preserve"
       style="font-style:normal;font-variant:normal;font-weight:normal;font-stretch:normal;font-size:8.46667px;line-height:1.25;font-family:Consolas;-inkscape-font-specification:'Consolas, Normal';font-variant-ligatures:normal;font-variant-caps:normal;font-variant-numeric:normal;font-variant-east-asian:normal;fill:#000000;fill-opacity:1;fill-rule:evenodd;stroke-width:0.264583"
       x="92.911896"
       y="187.97154"
       id="text9402-9"><tspan
         sodipodi:role="line"
         id="tspan9400-7"
         style="font-style:normal;font-variant:normal;font-weight:normal;font-stretch:normal;font-size:8.46667px;font-family:Consolas;-inkscape-font-specification:'Consolas, Normal';font-variant-ligatures:normal;font-variant-caps:normal;font-variant-numeric:normal;font-variant-east-asian:normal;fill:#000000;fill-opacity:1;stroke-width:0.264583"
         x="92.911896"
         y="187.97154">B</tspan></text>
  </g>
</svg>
